<?xml version="1.0" encoding="UTF-8"?>
<svg version="1.1" xmlns="http://www.w3.org/2000/svg" width="96" height="96">
<path d="M0 0 C4.29 0 8.58 0 13 0 C13.66 2.64 14.32 5.28 15 8 C15.66 8 16.32 8 17 8 C17 8.66 17 9.32 17 10 C19.0745356 11.2236068 19.0745356 11.2236068 22 11 C23.71711243 8.55503957 23.71711243 8.55503957 25 6 C27.875 6.3125 27.875 6.3125 31 7 C31.99 8.485 31.99 8.485 33 10 C33.99 10.33 34.98 10.66 36 11 C36.76379333 14.73410075 37.09361839 17.35460538 36 21 C36 22.32 36 23.64 36 25 C38.31 24.67 40.62 24.34 43 24 C45.32101959 28.30074849 46.146966 32.62247924 47.125 37.375 C47.30675781 38.21289062 47.48851563 39.05078125 47.67578125 39.9140625 C49.00350497 46.26317743 50.15962631 52.01333962 47 58 C44.09907498 59.93395001 43.10325263 60.30131941 39.8125 60.625 C38.554375 60.74875 37.29625 60.8725 36 61 C36.350625 61.5775 36.70125 62.155 37.0625 62.75 C38.18980957 65.45554298 37.95844332 66.28441059 37 69 C34.51989767 72.44952344 31.98676692 74.67779039 27.9375 76 C24.76733658 76 22.84262785 75.34235204 20 74 C19.34 74 18.68 74 18 74 C18 75.65 18 77.3 18 79 C17.34 79 16.68 79 16 79 C15.67 80.65 15.34 82.3 15 84 C12.87436897 83.88623383 10.7494739 83.75864369 8.625 83.625 C7.44164062 83.55539063 6.25828125 83.48578125 5.0390625 83.4140625 C2 83 2 83 0 81 C-0.39764263 79.01178687 -0.73775349 77.01055661 -1 75 C-2.98 74.67 -4.96 74.34 -7 74 C-7.66 75.32 -8.32 76.64 -9 78 C-10.27875 77.896875 -11.5575 77.79375 -12.875 77.6875 C-13.59429688 77.62949219 -14.31359375 77.57148437 -15.0546875 77.51171875 C-17 77 -17 77 -19 74 C-19.99 73.67 -20.98 73.34 -22 73 C-22.63771783 71.72456434 -23.24551958 70.43341635 -23.8125 69.125 C-24.94307704 66.87537465 -24.94307704 66.87537465 -27 65 C-28.93122728 63.06877272 -29.9340622 61.48718821 -31 59 C-31.33 59 -31.66 59 -32 59 C-31.98839844 58.30132812 -31.97679687 57.60265625 -31.96484375 56.8828125 C-31.95582031 55.97273438 -31.94679688 55.06265625 -31.9375 54.125 C-31.92589844 53.22007813 -31.91429687 52.31515625 -31.90234375 51.3828125 C-31.83750743 48.9831415 -31.83750743 48.9831415 -33 47 C-33.07116382 44.62597499 -33.08409085 42.24999323 -33.0625 39.875 C-33.05347656 38.59367187 -33.04445313 37.31234375 -33.03515625 35.9921875 C-33.02355469 35.00476562 -33.01195312 34.01734375 -33 33 C-30.03 32.505 -30.03 32.505 -27 32 C-27 29.69 -27 27.38 -27 25 C-26.34 24.67 -25.68 24.34 -25 24 C-23.11717381 21.28036217 -23.00054038 19.9927049 -23.25 16.625 C-22.94730185 12.23587689 -21.86007553 10.92436647 -18.65234375 8.1015625 C-17 7 -17 7 -14.375 6.4375 C-11.62626341 7.08851656 -10.18540103 8.25167918 -8 10 C-7.01 10 -6.02 10 -5 10 C-2.80330908 6.70496362 -1.25096093 3.75288279 0 0 Z M1 1 C1 1.33 1 1.66 1 2 C4.63 2 8.26 2 12 2 C12 1.67 12 1.34 12 1 C8.37 1 4.74 1 1 1 Z M-22 21 C-21 23 -21 23 -21 23 Z M34 21 C34 22.65 34 24.3 34 26 C34.33 26 34.66 26 35 26 C35 24.35 35 22.7 35 21 C34.67 21 34.34 21 34 21 Z M40 25 C39.01 25.66 38.02 26.32 37 27 C38.65 26.67 40.3 26.34 42 26 C41.34 25.67 40.68 25.34 40 25 Z M34 58 C35 61 35 61 35 61 Z M36 58 C36 58.33 36 58.66 36 59 C38.64 59 41.28 59 44 59 C44 58.67 44 58.34 44 58 C41.36 58 38.72 58 36 58 Z M2 62 C2 62.33 2 62.66 2 63 C3.45792884 63.05399736 4.91642712 63.09279177 6.375 63.125 C7.59316406 63.15980469 7.59316406 63.15980469 8.8359375 63.1953125 C11.21342243 63.21370051 11.21342243 63.21370051 13 61 C9.21293268 61 5.73486879 61.4254048 2 62 Z M-22 65 C-21 67 -21 67 -21 67 Z " fill="#DF9F50" transform="translate(41,6)"/>
<path d="M0 0 C4.29 0 8.58 0 13 0 C13.66 2.64 14.32 5.28 15 8 C15.66 8 16.32 8 17 8 C17 8.66 17 9.32 17 10 C19.0745356 11.2236068 19.0745356 11.2236068 22 11 C23.71711243 8.55503957 23.71711243 8.55503957 25 6 C27.875 6.3125 27.875 6.3125 31 7 C31.99 8.485 31.99 8.485 33 10 C33.99 10.33 34.98 10.66 36 11 C36.76379333 14.73410075 37.09361839 17.35460538 36 21 C36 22.32 36 23.64 36 25 C38.31 24.67 40.62 24.34 43 24 C45.32101959 28.30074849 46.146966 32.62247924 47.125 37.375 C47.30675781 38.21289062 47.48851563 39.05078125 47.67578125 39.9140625 C49.00350497 46.26317743 50.15962631 52.01333962 47 58 C44.09907498 59.93395001 43.10325263 60.30131941 39.8125 60.625 C38.554375 60.74875 37.29625 60.8725 36 61 C36.350625 61.5775 36.70125 62.155 37.0625 62.75 C38.18980957 65.45554298 37.95844332 66.28441059 37 69 C34.51989767 72.44952344 31.98676692 74.67779039 27.9375 76 C24.76733658 76 22.84262785 75.34235204 20 74 C19.34 74 18.68 74 18 74 C18 75.65 18 77.3 18 79 C17.34 79 16.68 79 16 79 C15.67 80.65 15.34 82.3 15 84 C12.87436897 83.88623383 10.7494739 83.75864369 8.625 83.625 C7.44164062 83.55539063 6.25828125 83.48578125 5.0390625 83.4140625 C2 83 2 83 0 81 C-0.39764263 79.01178687 -0.73775349 77.01055661 -1 75 C-2.98 74.67 -4.96 74.34 -7 74 C-7.66 75.32 -8.32 76.64 -9 78 C-10.27875 77.896875 -11.5575 77.79375 -12.875 77.6875 C-13.59429688 77.62949219 -14.31359375 77.57148437 -15.0546875 77.51171875 C-17 77 -17 77 -19 74 C-19.99 73.67 -20.98 73.34 -22 73 C-22.63771783 71.72456434 -23.24551958 70.43341635 -23.8125 69.125 C-24.94307704 66.87537465 -24.94307704 66.87537465 -27 65 C-28.93122728 63.06877272 -29.9340622 61.48718821 -31 59 C-31.33 59 -31.66 59 -32 59 C-31.98839844 58.30132812 -31.97679687 57.60265625 -31.96484375 56.8828125 C-31.95582031 55.97273438 -31.94679688 55.06265625 -31.9375 54.125 C-31.92589844 53.22007813 -31.91429687 52.31515625 -31.90234375 51.3828125 C-31.83750743 48.9831415 -31.83750743 48.9831415 -33 47 C-33.07116382 44.62597499 -33.08409085 42.24999323 -33.0625 39.875 C-33.05347656 38.59367187 -33.04445313 37.31234375 -33.03515625 35.9921875 C-33.02355469 35.00476562 -33.01195312 34.01734375 -33 33 C-30.03 32.505 -30.03 32.505 -27 32 C-27 29.69 -27 27.38 -27 25 C-26.34 24.67 -25.68 24.34 -25 24 C-23.11717381 21.28036217 -23.00054038 19.9927049 -23.25 16.625 C-22.94730185 12.23587689 -21.86007553 10.92436647 -18.65234375 8.1015625 C-17 7 -17 7 -14.375 6.4375 C-11.62626341 7.08851656 -10.18540103 8.25167918 -8 10 C-7.01 10 -6.02 10 -5 10 C-2.80330908 6.70496362 -1.25096093 3.75288279 0 0 Z M1 1 C1 1.33 1 1.66 1 2 C4.63 2 8.26 2 12 2 C12 1.67 12 1.34 12 1 C8.37 1 4.74 1 1 1 Z M2 5 C1.67 7.97 1.34 10.94 1 14 C-4.9015544 15.76165803 -4.9015544 15.76165803 -8 16 C-11.0625 14.125 -11.0625 14.125 -13 12 C-15.88437779 13.29299694 -17.87219421 14.65941363 -20 17 C-18.99814595 19.23490519 -18.1888327 20.82569289 -16.375 22.5 C-15 24 -15 24 -15 28 C-14.360625 28.12375 -13.72125 28.2475 -13.0625 28.375 C-12.0415625 28.684375 -12.0415625 28.684375 -11 29 C-10.67 29.66 -10.34 30.32 -10 31 C-10.99 31 -11.98 31 -13 31 C-13 34.63 -13 38.26 -13 42 C-14.32 42 -15.64 42 -17 42 C-17 38.7 -17 35.4 -17 32 C-18.32 32 -19.64 32 -21 32 C-21 33.65 -21 35.3 -21 37 C-25.455 37.495 -25.455 37.495 -30 38 C-29.67 40.97 -29.34 43.94 -29 47 C-22.07 46.34 -15.14 45.68 -8 45 C-7.67 41.37 -7.34 37.74 -7 34 C-6.34 37.3 -5.68 40.6 -5 44 C1.45943509 44.48538495 1.45943509 44.48538495 7 41 C6.01 35.72 5.02 30.44 4 25 C0.04 25.33 -3.92 25.66 -8 26 C-8 25.34 -8 24.68 -8 24 C-1.46866261 19.10149696 3.9863185 18.28235688 12 19 C14.83324384 19.78346936 17.30220473 20.80097988 20 22 C15.01716284 23.14051606 10.05531868 24.22225866 5 25 C5.495 29.95 5.495 29.95 6 35 C6.33 35 6.66 35 7 35 C7.66 32.69 8.32 30.38 9 28 C10.65 27.67 12.3 27.34 14 27 C14.66 27.99 15.32 28.98 16 30 C13.525 29.01 13.525 29.01 11 28 C9.58422523 29.18424326 9.58422523 29.18424326 9.9375 32.5625 C9.958125 33.696875 9.97875 34.83125 10 36 C11.65 36.33 13.3 36.66 15 37 C15 36.34 15 35.68 15 35 C15.66 35 16.32 35 17 35 C16.67 36.65 16.34 38.3 16 40 C16.99 40 17.98 40 19 40 C19 37.03 19 34.06 19 31 C19.33 31 19.66 31 20 31 C20 29.02 20 27.04 20 25 C20.66 25.33 21.32 25.66 22 26 C22.625 28.0625 22.625 28.0625 23 30 C24.32 30 25.64 30 27 30 C27 28.02 27 26.04 27 24 C27.66 24 28.32 24 29 24 C28.95875 25.03125 28.9175 26.0625 28.875 27.125 C28.99575149 30.86829627 29.64872018 33.53734547 31 37 C30.01 37 29.02 37 28 37 C28 35.35 28 33.7 28 32 C26.68 32 25.36 32 24 32 C24 33.98 24 35.96 24 38 C23.01 38 22.02 38 21 38 C21 38.99 21 39.98 21 41 C19.948125 40.979375 18.89625 40.95875 17.8125 40.9375 C13.77343861 40.88929767 13.77343861 40.88929767 9 42 C8.01 46.95 7.02 51.9 6 57 C7.32 57 8.64 57 10 57 C10 56.01 10 55.02 10 54 C11.32 54 12.64 54 14 54 C14 54.99 14 55.98 14 57 C14.99 57.495 14.99 57.495 16 58 C9.4 58.99 2.8 59.98 -4 61 C-0.55517189 64.44482811 1.50355063 65.15051789 6.1875 65.25 C11.01766486 65.21832679 14.59673512 63.92142467 19 62 C13.18323276 65.9886404 6.84594251 65.78477878 0 65 C-3.01250124 63.96152908 -5.25367403 62.67831031 -8 61 C-9.485 60.505 -9.485 60.505 -11 60 C-11 58.35 -11 56.7 -11 55 C-8.525 54.505 -8.525 54.505 -6 54 C-5.34 55.65 -4.68 57.3 -4 59 C0.66573782 58.61400037 0.66573782 58.61400037 4.9375 56.875 C6.64550843 53.86086748 6.36204814 51.37911601 6 48 C5.14780077 45.89757556 5.14780077 45.89757556 3 45 C0.28117977 44.76404716 -2.25957022 44.86522477 -5 45 C-5.33 45.99 -5.66 46.98 -6 48 C-6.66 47.34 -7.32 46.68 -8 46 C-11.58343976 45.83322718 -11.58343976 45.83322718 -15 46 C-14.96519531 47.02480469 -14.93039063 48.04960938 -14.89453125 49.10546875 C-14.86637965 50.46612936 -14.83908096 51.8268078 -14.8125 53.1875 C-14.78736328 53.86103516 -14.76222656 54.53457031 -14.73632812 55.22851562 C-14.66978082 59.77591459 -15.47052653 62.27586756 -18 66 C-18.01453953 68.67975596 -18.01453953 68.67975596 -17 71 C-14.31973545 73.24180162 -14.31973545 73.24180162 -12 72.8125 C-9.88988782 72.15737748 -9.88988782 72.15737748 -8.75 70.3125 C-7 69 -7 69 -5.0703125 69.21484375 C0.59617647 70.59617647 0.59617647 70.59617647 2 72 C2.45459858 74.65463121 2.70243238 77.32189138 3 80 C7.455 79.505 7.455 79.505 12 79 C12.33 76.03 12.66 73.06 13 70 C14.36125 69.7834375 14.36125 69.7834375 15.75 69.5625 C18.85258509 69.1384773 18.85258509 69.1384773 21.0625 68.1875 C23 68 23 68 25.75 69.9375 C26.4925 70.618125 27.235 71.29875 28 72 C30.46800047 70.84826645 32.04783565 69.95216435 34 68 C33.67028521 64.70285207 33.3773161 63.3773161 31 61 C30.875 58.375 30.875 58.375 31 56 C28.36 56.33 25.72 56.66 23 57 C22.505 51.06 22.505 51.06 22 45 C22.99 45.33 23.98 45.66 25 46 C25.495 50.455 25.495 50.455 26 55 C28.97 55 31.94 55 35 55 C35.495 54.01 35.495 54.01 36 53 C36.33 53.33 36.66 53.66 37 54 C39.33944736 53.71269945 41.6739143 53.38063221 44 53 C44.67958603 50.60280568 44.67958603 50.60280568 45 48 C42.8614515 45.8614515 41.86724686 45.57344937 39 45 C40.32 44.67 41.64 44.34 43 44 C42.835 43.360625 42.67 42.72125 42.5 42.0625 C41.83603561 37.99571812 41.93850445 34.12020171 42 30 C38.7 29.67 35.4 29.34 32 29 C31.86607143 18.82142857 31.86607143 18.82142857 33 15 C31.02 13.68 29.04 12.36 27 11 C26.195625 11.86625 25.39125 12.7325 24.5625 13.625 C22.38756918 15.48699113 21.49819212 16.02349199 18.59765625 15.88671875 C16.36957183 15.3692963 14.17969898 14.69354058 12 14 C11.505 9.545 11.505 9.545 11 5 C8.03 5 5.06 5 2 5 Z M-22 21 C-21 23 -21 23 -21 23 Z M34 21 C34 22.65 34 24.3 34 26 C34.33 26 34.66 26 35 26 C35 24.35 35 22.7 35 21 C34.67 21 34.34 21 34 21 Z M40 25 C39.01 25.66 38.02 26.32 37 27 C38.65 26.67 40.3 26.34 42 26 C41.34 25.67 40.68 25.34 40 25 Z M34 58 C35 61 35 61 35 61 Z M36 58 C36 58.33 36 58.66 36 59 C38.64 59 41.28 59 44 59 C44 58.67 44 58.34 44 58 C41.36 58 38.72 58 36 58 Z M-22 65 C-21 67 -21 67 -21 67 Z " fill="#C99860" transform="translate(41,6)"/>
<path d="M0 0 C2.97 0 5.94 0 9 0 C9.495 4.455 9.495 4.455 10 9 C15.59740494 11.05886716 15.59740494 11.05886716 21.15625 10.01953125 C23.29889251 8.499634 23.29889251 8.499634 26 6 C28.475 7.98 28.475 7.98 31 10 C30.75443359 10.82757812 30.75443359 10.82757812 30.50390625 11.671875 C29.94239586 14.26614007 29.90260992 16.59835411 29.9375 19.25 C29.958125 20.8175 29.97875 22.385 30 24 C33.3 24.33 36.6 24.66 40 25 C40 27.64 40 30.28 40 33 C33.16217825 35.4420792 26.20568193 35.62022758 19 36 C19 35.01 19 34.02 19 33 C19.99 33 20.98 33 22 33 C22 31.02 22 29.04 22 27 C23.32 27 24.64 27 26 27 C26 28.65 26 30.3 26 32 C26.99 32 27.98 32 29 32 C28.505 30.7315625 28.505 30.7315625 28 29.4375 C26.93894046 25.79010784 26.84890987 22.77725336 27 19 C26.34 19 25.68 19 25 19 C25 20.98 25 22.96 25 25 C23.68 25 22.36 25 21 25 C20.814375 24.0409375 20.814375 24.0409375 20.625 23.0625 C20.41875 22.381875 20.2125 21.70125 20 21 C19.34 20.67 18.68 20.34 18 20 C18.020625 20.928125 18.04125 21.85625 18.0625 22.8125 C18 26 18 26 17 29 C16.96079185 30.99961564 16.95556653 33.00049364 17 35 C16.01 35 15.02 35 14 35 C14.33 33.35 14.66 31.7 15 30 C14.34 30 13.68 30 13 30 C13 30.66 13 31.32 13 32 C11.35 31.67 9.7 31.34 8 31 C8 28.69 8 26.38 8 24 C12 24 12 24 14 25 C13.34 24.01 12.68 23.02 12 22 C10.35 22.33 8.7 22.66 7 23 C6.34 25.31 5.68 27.62 5 30 C4.67 30 4.34 30 4 30 C3.67 26.7 3.34 23.4 3 20 C3.91523437 19.86722656 4.83046875 19.73445313 5.7734375 19.59765625 C6.96195313 19.42105469 8.15046875 19.24445312 9.375 19.0625 C11.15003906 18.80146484 11.15003906 18.80146484 12.9609375 18.53515625 C15.90702381 18.16537214 15.90702381 18.16537214 18 17 C11.38861898 14.06160844 5.10389831 12.57090847 -2.05078125 14.57421875 C-5.37874012 15.92108005 -8.25728269 17.69611746 -11 20 C-7.87819599 20.96661363 -5.47916205 20.98988909 -2.25 20.5625 C-0.8475 20.376875 0.555 20.19125 2 20 C2.99 25.61 3.98 31.22 5 37 C1.38863788 38.80568106 0.455469 39.24851563 -3.25 39.125 C-4.4875 39.08375 -5.725 39.0425 -7 39 C-7.66 35.7 -8.32 32.4 -9 29 C-9.33 32.63 -9.66 36.26 -10 40 C-16.93 40.66 -23.86 41.32 -31 42 C-31.33 39.03 -31.66 36.06 -32 33 C-27.545 32.505 -27.545 32.505 -23 32 C-23 30.35 -23 28.7 -23 27 C-21.68 27 -20.36 27 -19 27 C-19 30.3 -19 33.6 -19 37 C-17.68 37 -16.36 37 -15 37 C-15 33.37 -15 29.74 -15 26 C-14.01 26 -13.02 26 -12 26 C-12.33 25.34 -12.66 24.68 -13 24 C-15.02463255 23.34786708 -15.02463255 23.34786708 -17 23 C-17 21.68 -17 20.36 -17 19 C-19.41666771 16.24958334 -19.41666771 16.24958334 -22 14 C-20.70700306 11.11562221 -19.34058637 9.12780579 -17 7 C-16.443125 7.28875 -15.88625 7.5775 -15.3125 7.875 C-14.549375 8.24625 -13.78625 8.6175 -13 9 C-12.236875 9.4125 -11.47375 9.825 -10.6875 10.25 C-6.98647066 11.2828454 -4.55616923 10.25511855 -1 9 C-0.67 6.03 -0.34 3.06 0 0 Z " fill="#E4A24C" transform="translate(43,11)"/>
<path d="M0 0 C0.495 0.99 0.495 0.99 1 2 C-4.38027025 3.19088986 -9.45291384 4.2919519 -15 4 C-14.34 5.32 -13.68 6.64 -13 8 C-12.608125 7.484375 -12.21625 6.96875 -11.8125 6.4375 C-11.214375 5.963125 -10.61625 5.48875 -10 5 C-7.3125 5.3125 -7.3125 5.3125 -5 6 C-4.505 7.485 -4.505 7.485 -4 9 C-6.475 8.505 -6.475 8.505 -9 8 C-9 10.31 -9 12.62 -9 15 C-7.68 15.33 -6.36 15.66 -5 16 C-5 15.34 -5 14.68 -5 14 C-4.34 14 -3.68 14 -3 14 C-3.495 16.475 -3.495 16.475 -4 19 C-3.01 19 -2.02 19 -1 19 C-1.33 14.71 -1.66 10.42 -2 6 C-0.68 5.34 0.64 4.68 2 4 C2.495 6.475 2.495 6.475 3 9 C4.32 9 5.64 9 7 9 C7 7.02 7 5.04 7 3 C7.66 3 8.32 3 9 3 C9.66 7.29 10.32 11.58 11 16 C10.01 16 9.02 16 8 16 C8 14.35 8 12.7 8 11 C6.68 11 5.36 11 4 11 C4 12.98 4 14.96 4 17 C3.01 17 2.02 17 1 17 C1 17.99 1 18.98 1 20 C-2.96 20.33 -6.92 20.66 -11 21 C-11.144375 22.5675 -11.28875 24.135 -11.4375 25.75 C-11.73058631 28.93207999 -12.14340865 31.91915045 -13 35 C-12.01 35.33 -11.02 35.66 -10 36 C-10 35.01 -10 34.02 -10 33 C-8.68 33 -7.36 33 -6 33 C-6 33.99 -6 34.98 -6 36 C-3.69 36 -1.38 36 1 36 C1 36.33 1 36.66 1 37 C-6.92 38.32 -14.84 39.64 -23 41 C-14.68026559 44.32789376 -9.10121194 43.35222563 -1 40 C-0.01 40 0.98 40 2 40 C-5.42681604 45.11625105 -11.06506135 45.7911693 -20 45 C-24.10815005 43.66024782 -27.41375335 41.3908311 -31 39 C-31.1875 36.375 -31.1875 36.375 -31 34 C-30.195625 33.87625 -29.39125 33.7525 -28.5625 33.625 C-27.716875 33.41875 -26.87125 33.2125 -26 33 C-25.67 32.34 -25.34 31.68 -25 31 C-24.67 33.31 -24.34 35.62 -24 38 C-21.03 37.34 -18.06 36.68 -15 36 C-14.95875 34.55625 -14.9175 33.1125 -14.875 31.625 C-14.85179687 30.81289063 -14.82859375 30.00078125 -14.8046875 29.1640625 C-14.78629949 26.78657757 -14.78629949 26.78657757 -17 25 C-19.65537372 24.43479997 -22.29144713 24.26211802 -25 24 C-25.33 25.32 -25.66 26.64 -26 28 C-26.66 27.34 -27.32 26.68 -28 26 C-30.32275177 25.59952556 -32.65739357 25.2602896 -35 25 C-34.89300781 26.02480469 -34.78601562 27.04960938 -34.67578125 28.10546875 C-34.55379665 29.46606626 -34.43275247 30.82674831 -34.3125 32.1875 C-34.23966797 32.86103516 -34.16683594 33.53457031 -34.09179688 34.22851562 C-33.7046093 38.89754223 -34.42744911 41.17093325 -37 45 C-37 46.32 -37 47.64 -37 49 C-34.31973545 51.24180162 -34.31973545 51.24180162 -32 50.8125 C-29.88988782 50.15737748 -29.88988782 50.15737748 -28.75 48.3125 C-27 47 -27 47 -25.10546875 47.1796875 C-19.50955882 48.49044118 -19.50955882 48.49044118 -17 51 C-16.73008094 53.68839385 -16.91262643 56.29141936 -17 59 C-18.76462683 55.91190305 -19 54.76687864 -19 51 C-22.26276567 50.13986273 -22.26276567 50.13986273 -26 50 C-28.67398476 51.93897879 -28.67398476 51.93897879 -31 54 C-34.82189348 54 -37.21264494 51.40022241 -40 49 C-39.125 44.25 -39.125 44.25 -38 42 C-39.11375 42.04125 -40.2275 42.0825 -41.375 42.125 C-45 42 -45 42 -47 40 C-47.125 37.375 -47.125 37.375 -47 35 C-46.62875 35.66 -46.2575 36.32 -45.875 37 C-44.09664711 39.33639809 -44.09664711 39.33639809 -40.875 39.3125 C-38.10649557 39.31534788 -38.10649557 39.31534788 -37 38 C-36.92755947 35.98035801 -36.91622812 33.95832876 -36.9375 31.9375 C-36.94652344 30.83277344 -36.95554687 29.72804687 -36.96484375 28.58984375 C-36.97644531 27.73519531 -36.98804688 26.88054688 -37 26 C-37.99 26 -38.98 26 -40 26 C-40 25.34 -40 24.68 -40 24 C-36.04 24 -32.08 24 -28 24 C-28 19.05 -28 14.1 -28 9 C-26.18751015 12.6249797 -25.68111085 14.37259584 -25.375 18.25 C-25.30023438 19.14203125 -25.22546875 20.0340625 -25.1484375 20.953125 C-25.09945312 21.62859375 -25.05046875 22.3040625 -25 23 C-20.88425629 22.5251065 -17.63616656 21.9789756 -14 20 C-14.144375 19.43152344 -14.28875 18.86304687 -14.4375 18.27734375 C-15.61545505 13.37737795 -16.21427527 9.0354688 -16 4 C-16.84304687 4.16757812 -17.68609375 4.33515625 -18.5546875 4.5078125 C-19.65039062 4.71148438 -20.74609375 4.91515625 -21.875 5.125 C-22.96554688 5.33382812 -24.05609375 5.54265625 -25.1796875 5.7578125 C-26.57574219 5.87769531 -26.57574219 5.87769531 -28 6 C-28.66 5.34 -29.32 4.68 -30 4 C-28.75627811 3.01287122 -27.50472782 2.03560095 -26.25 1.0625 C-25.55390625 0.51722656 -24.8578125 -0.02804688 -24.140625 -0.58984375 C-16.92536807 -5.34296009 -7.33113951 -3.46562959 0 0 Z " fill="#7C5F3E" transform="translate(61,27)"/>
<path d="M0 0 C1.51400391 0.01740234 1.51400391 0.01740234 3.05859375 0.03515625 C4.07050781 0.04417969 5.08242188 0.05320312 6.125 0.0625 C6.90746094 0.07410156 7.68992188 0.08570313 8.49609375 0.09765625 C9.15609375 2.73765625 9.81609375 5.37765625 10.49609375 8.09765625 C13.72657915 9.47393924 13.72657915 9.47393924 17.49609375 10.09765625 C20.19042692 8.22568171 20.19042692 8.22568171 22.49609375 6.09765625 C26.31798723 6.09765625 28.70873869 8.69743384 31.49609375 11.09765625 C31.35171875 11.65453125 31.20734375 12.21140625 31.05859375 12.78515625 C30.78015625 13.92984375 30.78015625 13.92984375 30.49609375 15.09765625 C30.28984375 15.92265625 30.08359375 16.74765625 29.87109375 17.59765625 C29.29196945 20.36848947 29.29196945 20.36848947 30.49609375 24.09765625 C33.46609375 24.09765625 36.43609375 24.09765625 39.49609375 24.09765625 C40.65384435 27.57090806 40.56476027 30.45833073 40.49609375 34.09765625 C39.83609375 33.76765625 39.17609375 33.43765625 38.49609375 33.09765625 C38.49609375 30.78765625 38.49609375 28.47765625 38.49609375 26.09765625 C37.78582031 26.10925781 37.07554688 26.12085937 36.34375 26.1328125 C35.42464844 26.14183594 34.50554687 26.15085937 33.55859375 26.16015625 C32.18380859 26.17755859 32.18380859 26.17755859 30.78125 26.1953125 C28.49609375 26.09765625 28.49609375 26.09765625 27.49609375 25.09765625 C27.39690298 23.49601709 27.36639477 21.88985707 27.37109375 20.28515625 C27.36722656 18.97611328 27.36722656 18.97611328 27.36328125 17.640625 C27.48494541 15.3111141 27.84094666 13.3282761 28.49609375 11.09765625 C26.84609375 10.10765625 25.19609375 9.11765625 23.49609375 8.09765625 C22.28953125 9.42796875 22.28953125 9.42796875 21.05859375 10.78515625 C19.4296875 12.18359375 19.4296875 12.18359375 17.49609375 13.09765625 C14.12395762 12.62610551 11.65782519 11.48690188 8.49609375 10.09765625 C8.00109375 5.64265625 8.00109375 5.64265625 7.49609375 1.09765625 C4.52609375 1.09765625 1.55609375 1.09765625 -1.50390625 1.09765625 C-1.83390625 4.06765625 -2.16390625 7.03765625 -2.50390625 10.09765625 C-5.45890631 11.41098961 -8.30852734 12.54728162 -11.50390625 13.09765625 C-14.56640625 11.28515625 -14.56640625 11.28515625 -16.50390625 9.09765625 C-18.95745473 10.07907564 -20.30037393 10.82011217 -21.87890625 12.97265625 C-22.72242671 15.11210892 -22.72242671 15.11210892 -21.81640625 17.28515625 C-20.54861793 19.40659006 -20.54861793 19.40659006 -17.50390625 20.09765625 C-17.83390625 21.41765625 -18.16390625 22.73765625 -18.50390625 24.09765625 C-16.85390625 24.42765625 -15.20390625 24.75765625 -13.50390625 25.09765625 C-13.50390625 25.75765625 -13.50390625 26.41765625 -13.50390625 27.09765625 C-14.49390625 27.09765625 -15.48390625 27.09765625 -16.50390625 27.09765625 C-16.50390625 30.72765625 -16.50390625 34.35765625 -16.50390625 38.09765625 C-17.82390625 38.09765625 -19.14390625 38.09765625 -20.50390625 38.09765625 C-20.50390625 34.79765625 -20.50390625 31.49765625 -20.50390625 28.09765625 C-21.82390625 28.09765625 -23.14390625 28.09765625 -24.50390625 28.09765625 C-24.50390625 29.74765625 -24.50390625 31.39765625 -24.50390625 33.09765625 C-28.95890625 33.59265625 -28.95890625 33.59265625 -33.50390625 34.09765625 C-33.17390625 37.06765625 -32.84390625 40.03765625 -32.50390625 43.09765625 C-31.08078125 42.91203125 -29.65765625 42.72640625 -28.19140625 42.53515625 C-25.03022018 42.12282763 -23.59869504 42.06605999 -20.50390625 43.09765625 C-19.57004809 45.89923073 -19.3403603 47.75213428 -19.31640625 50.66015625 C-19.30222656 51.44519531 -19.28804687 52.23023438 -19.2734375 53.0390625 C-19.50390625 55.09765625 -19.50390625 55.09765625 -21.50390625 57.09765625 C-24.50390625 57.41015625 -24.50390625 57.41015625 -27.50390625 57.09765625 C-28.16390625 56.10765625 -28.82390625 55.11765625 -29.50390625 54.09765625 C-29.17390625 55.41765625 -28.84390625 56.73765625 -28.50390625 58.09765625 C-26.19390625 58.42765625 -23.88390625 58.75765625 -21.50390625 59.09765625 C-21.83390625 59.75765625 -22.16390625 60.41765625 -22.50390625 61.09765625 C-25.50390625 61.09765625 -28.50390625 61.09765625 -31.50390625 61.09765625 C-32.16390625 59.11765625 -32.82390625 57.13765625 -33.50390625 55.09765625 C-34.16390625 55.09765625 -34.82390625 55.09765625 -35.50390625 55.09765625 C-35.49230469 54.39898437 -35.48070312 53.7003125 -35.46875 52.98046875 C-35.45972656 52.07039063 -35.45070313 51.1603125 -35.44140625 50.22265625 C-35.42980469 49.31773438 -35.41820312 48.4128125 -35.40625 47.48046875 C-35.34141368 45.08079775 -35.34141368 45.08079775 -36.50390625 43.09765625 C-36.57507007 40.72363124 -36.5879971 38.34764948 -36.56640625 35.97265625 C-36.55738281 34.69132812 -36.54835938 33.41 -36.5390625 32.08984375 C-36.52746094 31.10242188 -36.51585937 30.115 -36.50390625 29.09765625 C-34.52390625 28.76765625 -32.54390625 28.43765625 -30.50390625 28.09765625 C-30.50390625 25.78765625 -30.50390625 23.47765625 -30.50390625 21.09765625 C-29.84390625 20.76765625 -29.18390625 20.43765625 -28.50390625 20.09765625 C-26.62108006 17.37801842 -26.50444663 16.09036115 -26.75390625 12.72265625 C-26.45091717 8.32931454 -25.35387963 7.03694358 -22.171875 4.1875 C-19.87806049 2.68873127 -18.16842678 2.62744675 -15.50390625 3.09765625 C-15.17390625 4.08765625 -14.84390625 5.07765625 -14.50390625 6.09765625 C-13.84390625 6.42765625 -13.18390625 6.75765625 -12.50390625 7.09765625 C-12.17390625 8.08765625 -11.84390625 9.07765625 -11.50390625 10.09765625 C-7.89398246 9.44180436 -7.89398246 9.44180436 -4.50390625 8.09765625 C-4.12989839 5.77049625 -3.79625892 3.43647763 -3.50390625 1.09765625 C-2.50390625 0.09765625 -2.50390625 0.09765625 0 0 Z M-25.50390625 17.09765625 C-24.50390625 19.09765625 -24.50390625 19.09765625 -24.50390625 19.09765625 Z " fill="#C99B5B" transform="translate(44.50390625,9.90234375)"/>
<path d="M0 0 C1.4540625 0.0309375 1.4540625 0.0309375 2.9375 0.0625 C3.4325 3.0325 3.4325 3.0325 3.9375 6.0625 C2.6175 6.3925 1.2975 6.7225 -0.0625 7.0625 C0.741875 7.289375 1.54625 7.51625 2.375 7.75 C3.6434375 8.3996875 3.6434375 8.3996875 4.9375 9.0625 C5.75 11.6875 5.75 11.6875 5.9375 14.0625 C2.71536243 16.21059171 1.65974599 16.35636153 -2.0625 16.0625 C-2.5575 15.5675 -2.5575 15.5675 -3.0625 15.0625 C-3.3925 15.7225 -3.7225 16.3825 -4.0625 17.0625 C-7.0325 17.0625 -10.0025 17.0625 -13.0625 17.0625 C-13.3925 14.0925 -13.7225 11.1225 -14.0625 8.0625 C-15.0525 7.7325 -16.0425 7.4025 -17.0625 7.0625 C-16.7325 11.0225 -16.4025 14.9825 -16.0625 19.0625 C-15.0725 19.3925 -14.0825 19.7225 -13.0625 20.0625 C-15.93553804 22.40349395 -18.577284 23.81778 -22.0625 25.0625 C-22.97 25.43375 -23.8775 25.805 -24.8125 26.1875 C-30.46282057 27.70874015 -35.19701478 27.84796746 -40.625 25.5625 C-41.429375 25.0675 -42.23375 24.5725 -43.0625 24.0625 C-43.0625 23.7325 -43.0625 23.4025 -43.0625 23.0625 C-36.4625 22.0725 -29.8625 21.0825 -23.0625 20.0625 C-23.7225 19.7325 -24.3825 19.4025 -25.0625 19.0625 C-25.0625 18.0725 -25.0625 17.0825 -25.0625 16.0625 C-26.3825 16.0625 -27.7025 16.0625 -29.0625 16.0625 C-29.0625 17.0525 -29.0625 18.0425 -29.0625 19.0625 C-30.3825 18.7325 -31.7025 18.4025 -33.0625 18.0625 C-32.0725 13.4425 -31.0825 8.8225 -30.0625 4.0625 C-28.8559375 3.92972656 -27.649375 3.79695313 -26.40625 3.66015625 C-24.79166336 3.48180075 -23.17708021 3.30341364 -21.5625 3.125 C-20.37527344 2.99448242 -20.37527344 2.99448242 -19.1640625 2.86132812 C-16.79637414 2.59932982 -14.4294309 2.33124528 -12.0625 2.0625 C-11.2890625 1.9785498 -10.515625 1.89459961 -9.71875 1.80810547 C-6.16189024 1.40240115 -3.36935915 0.06876243 0 0 Z M-37.0625 24.0625 C-37.0625 24.3925 -37.0625 24.7225 -37.0625 25.0625 C-35.60457116 25.11649736 -34.14607288 25.15529177 -32.6875 25.1875 C-31.46933594 25.22230469 -31.46933594 25.22230469 -30.2265625 25.2578125 C-27.84907757 25.27620051 -27.84907757 25.27620051 -26.0625 23.0625 C-29.84956732 23.0625 -33.32763121 23.4879048 -37.0625 24.0625 Z " fill="#4B5059" transform="translate(80.0625,43.9375)"/>
<path d="M0 0 C1.98 1.32 3.96 2.64 6 4 C5.83628906 4.55171875 5.67257813 5.1034375 5.50390625 5.671875 C4.94239586 8.26614007 4.90260992 10.59835411 4.9375 13.25 C4.958125 14.8175 4.97875 16.385 5 18 C8.3 18.33 11.6 18.66 15 19 C15 21.64 15 24.28 15 27 C8.16217825 29.4420792 1.20568193 29.62022758 -6 30 C-6 29.01 -6 28.02 -6 27 C-5.01 27 -4.02 27 -3 27 C-3 25.02 -3 23.04 -3 21 C-1.68 21 -0.36 21 1 21 C1 22.65 1 24.3 1 26 C1.99 26 2.98 26 4 26 C3.67 25.154375 3.34 24.30875 3 23.4375 C1.93894046 19.79010784 1.84890987 16.77725336 2 13 C1.34 13 0.68 13 0 13 C0 14.98 0 16.96 0 19 C-1.32 19 -2.64 19 -4 19 C-4.12375 18.360625 -4.2475 17.72125 -4.375 17.0625 C-4.58125 16.381875 -4.7875 15.70125 -5 15 C-5.66 14.67 -6.32 14.34 -7 14 C-6.979375 14.928125 -6.95875 15.85625 -6.9375 16.8125 C-7 20 -7 20 -8 23 C-8.03920815 24.99961564 -8.04443347 27.00049364 -8 29 C-8.99 29 -9.98 29 -11 29 C-10.67 27.35 -10.34 25.7 -10 24 C-10.66 24 -11.32 24 -12 24 C-12 24.66 -12 25.32 -12 26 C-13.65 25.67 -15.3 25.34 -17 25 C-17 22.69 -17 20.38 -17 18 C-13 18 -13 18 -11 19 C-11.66 18.01 -12.32 17.02 -13 16 C-14.65 16.33 -16.3 16.66 -18 17 C-18.66 19.31 -19.32 21.62 -20 24 C-20.33 24 -20.66 24 -21 24 C-21.33 20.7 -21.66 17.4 -22 14 C-20.62714844 13.80083984 -20.62714844 13.80083984 -19.2265625 13.59765625 C-18.03804687 13.42105469 -16.84953125 13.24445312 -15.625 13.0625 C-14.44164062 12.88847656 -13.25828125 12.71445312 -12.0390625 12.53515625 C-9.09297619 12.16537214 -9.09297619 12.16537214 -7 11 C-7.99 10.67 -8.98 10.34 -10 10 C-10 8.35 -10 6.7 -10 5 C-8.9171875 4.87625 -8.9171875 4.87625 -7.8125 4.75 C-4.44686746 3.85249799 -2.58387184 2.2885722 0 0 Z " fill="#DBA35E" transform="translate(68,17)"/>
<path d="M0 0 C2.46121433 4.92242867 2.5690025 8.54069833 3 14 C7.62 13.67 12.24 13.34 17 13 C16.34 17.29 15.68 21.58 15 26 C15.99 26.33 16.98 26.66 18 27 C18 26.01 18 25.02 18 24 C19.32 24 20.64 24 22 24 C22 24.99 22 25.98 22 27 C24.31 27 26.62 27 29 27 C29 27.33 29 27.66 29 28 C21.08 29.32 13.16 30.64 5 32 C13.31973441 35.32789376 18.89878806 34.35222563 27 31 C27.99 31 28.98 31 30 31 C22.57318396 36.11625105 16.93493865 36.7911693 8 36 C3.89184995 34.66024782 0.58624665 32.3908311 -3 30 C-3.1875 27.375 -3.1875 27.375 -3 25 C-2.195625 24.87625 -1.39125 24.7525 -0.5625 24.625 C0.283125 24.41875 1.12875 24.2125 2 24 C2.33 23.34 2.66 22.68 3 22 C3.33 24.31 3.66 26.62 4 29 C6.97 28.34 9.94 27.68 13 27 C13.04125 25.55625 13.0825 24.1125 13.125 22.625 C13.14820313 21.81289063 13.17140625 21.00078125 13.1953125 20.1640625 C13.21370051 17.78657757 13.21370051 17.78657757 11 16 C8.34462628 15.43479997 5.70855287 15.26211802 3 15 C2.67 16.32 2.34 17.64 2 19 C1.34 18.34 0.68 17.68 0 17 C-2.32275177 16.59952556 -4.65739357 16.2602896 -7 16 C-6.89300781 17.02480469 -6.78601562 18.04960938 -6.67578125 19.10546875 C-6.55379665 20.46606626 -6.43275247 21.82674831 -6.3125 23.1875 C-6.20325195 24.19780273 -6.20325195 24.19780273 -6.09179688 25.22851562 C-5.7046093 29.89754223 -6.42744911 32.17093325 -9 36 C-9 37.32 -9 38.64 -9 40 C-6.31973545 42.24180162 -6.31973545 42.24180162 -4 41.8125 C-1.88988782 41.15737748 -1.88988782 41.15737748 -0.75 39.3125 C1 38 1 38 2.89453125 38.1796875 C8.49044118 39.49044118 8.49044118 39.49044118 11 42 C11.26991906 44.68839385 11.08737357 47.29141936 11 50 C9.23537317 46.91190305 9 45.76687864 9 42 C5.73723433 41.13986273 5.73723433 41.13986273 2 41 C-0.67398476 42.93897879 -0.67398476 42.93897879 -3 45 C-6.82189348 45 -9.21264494 42.40022241 -12 40 C-11.125 35.25 -11.125 35.25 -10 33 C-11.11375 33.04125 -12.2275 33.0825 -13.375 33.125 C-17 33 -17 33 -19 31 C-19.125 28.375 -19.125 28.375 -19 26 C-18.62875 26.66 -18.2575 27.32 -17.875 28 C-16.09664711 30.33639809 -16.09664711 30.33639809 -12.875 30.3125 C-10.10649557 30.31534788 -10.10649557 30.31534788 -9 29 C-8.92755947 26.98035801 -8.91622812 24.95832876 -8.9375 22.9375 C-8.94652344 21.83277344 -8.95554687 20.72804688 -8.96484375 19.58984375 C-8.97644531 18.73519531 -8.98804688 17.88054688 -9 17 C-9.99 17 -10.98 17 -12 17 C-12 16.34 -12 15.68 -12 15 C-8.04 15 -4.08 15 0 15 C0 10.05 0 5.1 0 0 Z " fill="#484440" transform="translate(33,36)"/>
<path d="M0 0 C0.99 0.66 1.98 1.32 3 2 C3 2.66 3 3.32 3 4 C3.99 4.33 4.98 4.66 6 5 C5.67 6.32 5.34 7.64 5 9 C7.475 9.495 7.475 9.495 10 10 C10 10.66 10 11.32 10 12 C9.01 12 8.02 12 7 12 C7 15.63 7 19.26 7 23 C5.68 23 4.36 23 3 23 C3 19.7 3 16.4 3 13 C1.68 13 0.36 13 -1 13 C-1 14.65 -1 16.3 -1 18 C-3.97 18.33 -6.94 18.66 -10 19 C-9.67 21.97 -9.34 24.94 -9 28 C-7.576875 27.814375 -6.15375 27.62875 -4.6875 27.4375 C-1.52631393 27.02517138 -0.09478879 26.96840374 3 28 C3.93385816 30.80157448 4.16354595 32.65447803 4.1875 35.5625 C4.20167969 36.34753906 4.21585938 37.13257813 4.23046875 37.94140625 C4 40 4 40 2 42 C-1 42.3125 -1 42.3125 -4 42 C-4.66 41.01 -5.32 40.02 -6 39 C-6.99 39.495 -6.99 39.495 -8 40 C-8.13277344 39.28972656 -8.26554688 38.57945313 -8.40234375 37.84765625 C-8.66724609 36.46900391 -8.66724609 36.46900391 -8.9375 35.0625 C-9.11152344 34.14597656 -9.28554687 33.22945312 -9.46484375 32.28515625 C-9.77714988 30.04710156 -9.77714988 30.04710156 -11 29 C-11.07244053 26.98035801 -11.08377188 24.95832876 -11.0625 22.9375 C-11.05347656 21.83277344 -11.04445313 20.72804688 -11.03515625 19.58984375 C-11.02355469 18.73519531 -11.01195312 17.88054688 -11 17 C-7.04 16.505 -7.04 16.505 -3 16 C-3 13.03 -3 10.06 -3 7 C-1.35 6.67 0.3 6.34 2 6 C1.34 4.02 0.68 2.04 0 0 Z " fill="#4B3E33" transform="translate(21,25)"/>
<path d="M0 0 C1.98 0 3.96 0 6 0 C6 0.33 6 0.66 6 1 C7.65 1.33 9.3 1.66 11 2 C11 2.33 11 2.66 11 3 C8.36 3.33 5.72 3.66 3 4 C3.350625 4.5775 3.70125 5.155 4.0625 5.75 C5.18980957 8.45554298 4.95844332 9.28441059 4 12 C1.51989767 15.44952344 -1.01323308 17.67779039 -5.0625 19 C-8.23266342 19 -10.15737215 18.34235204 -13 17 C-13.66 17 -14.32 17 -15 17 C-15 18.65 -15 20.3 -15 22 C-15.66 22 -16.32 22 -17 22 C-17.495 24.475 -17.495 24.475 -18 27 C-20.12563103 26.88623383 -22.2505261 26.75864369 -24.375 26.625 C-25.55835938 26.55539063 -26.74171875 26.48578125 -27.9609375 26.4140625 C-31 26 -31 26 -33 24 C-33.39764263 22.01178687 -33.73775349 20.01055661 -34 18 C-35.98 17.67 -37.96 17.34 -40 17 C-40.66 18.32 -41.32 19.64 -42 21 C-43.27875 20.896875 -44.5575 20.79375 -45.875 20.6875 C-46.59429687 20.62949219 -47.31359375 20.57148437 -48.0546875 20.51171875 C-50 20 -50 20 -52 17 C-52.99 16.67 -53.98 16.34 -55 16 C-55.33 15.34 -55.66 14.68 -56 14 C-56.37125 13.360625 -56.7425 12.72125 -57.125 12.0625 C-58 10 -58 10 -57 7 C-55.35 7 -53.7 7 -52 7 C-52.1546875 8.36125 -52.1546875 8.36125 -52.3125 9.75 C-52.31617982 13.15047648 -52.31617982 13.15047648 -49.75 15.4375 C-47.22789445 17.18586057 -47.22789445 17.18586057 -44.9375 16.9375 C-42.89102092 16.06467293 -42.89102092 16.06467293 -41.1875 14.3125 C-39 13 -39 13 -35.25 13.8125 C-34.1775 14.204375 -33.105 14.59625 -32 15 C-31.34 17.64 -30.68 20.28 -30 23 C-26.7 23 -23.4 23 -20 23 C-19.95875 21.741875 -19.9175 20.48375 -19.875 19.1875 C-19.60546875 16.984375 -19.60546875 16.984375 -19 15 C-16.14432682 12.90583967 -14.38353267 11.88141149 -10.8125 12.1875 C-9 13 -9 13 -6 15 C-3.19760013 14.78982001 -1.46565119 14.31043413 0.875 12.75 C2.25686924 10.98559754 2.25686924 10.98559754 1.8125 8.4375 C1.15372967 5.85558728 1.15372967 5.85558728 -1 4 C-0.625 1.875 -0.625 1.875 0 0 Z M1 1 C2 4 2 4 2 4 Z M-55 8 C-54 10 -54 10 -54 10 Z " fill="#CC9D5F" transform="translate(74,63)"/>
<path d="M0 0 C7.32215357 -0.36010591 7.32215357 -0.36010591 10 1.0625 C11.58433618 4.13215135 11.36248449 6.61681143 11 10 C9.9375 11.875 9.9375 11.875 8 13 C4.3125 13.6875 4.3125 13.6875 1 14 C0.34 12.35 -0.32 10.7 -1 9 C-2.65 9.33 -4.3 9.66 -6 10 C-6 11.65 -6 13.3 -6 15 C-6.99 15 -7.98 15 -9 15 C-9.95261487 10.23692563 -10.08333357 5.8333472 -10 1 C-6.625 0.875 -6.625 0.875 -3 1 C-2.34 1.66 -1.68 2.32 -1 3 C-0.67 2.01 -0.34 1.02 0 0 Z " fill="#A2BDD0" transform="translate(36,51)"/>
<path d="M0 0 C1.32 0 2.64 0 4 0 C5.20693821 3.62081463 5.10782079 6.9250719 5.0625 10.6875 C5.041875 13.100625 5.02125 15.51375 5 18 C-5.395 18.99 -5.395 18.99 -16 20 C-16.33 17.03 -16.66 14.06 -17 11 C-12.545 10.505 -12.545 10.505 -8 10 C-8 8.35 -8 6.7 -8 5 C-6.68 5 -5.36 5 -4 5 C-4 8.3 -4 11.6 -4 15 C-2.68 15 -1.36 15 0 15 C0 11.37 0 7.74 0 4 C0.99 4 1.98 4 3 4 C2.01 2.68 1.02 1.36 0 0 Z " fill="#DEA257" transform="translate(28,33)"/>
<path d="M0 0 C3.375 -0.125 3.375 -0.125 7 0 C9 2 9 2 9.0625 4.5625 C9.041875 5.366875 9.02125 6.17125 9 7 C9.495 7.495 9.495 7.495 10 8 C10.46707031 13.37130854 10.46707031 13.37130854 8.76953125 15.65625 C6.57534808 17.32247298 5.16658072 17.45415145 2.4375 17.625 C-0.90775258 17.82872181 -0.90775258 17.82872181 -4 19 C-3.38722388 21.96175123 -2.74627478 23.38058783 -1 26 C-1.1814792 28.81292754 -2.03808937 30.05033238 -3.75 32.3125 C-6 34 -6 34 -8.5625 33.875 C-11 33 -11 33 -14 31 C-16.84120234 31.35515029 -19.28047752 32.09349251 -22 33 C-22.144375 34.299375 -22.28875 35.59875 -22.4375 36.9375 C-22.875 40.875 -22.875 40.875 -24 42 C-25.68608966 42.07205511 -27.37500659 42.08386068 -29.0625 42.0625 C-29.98160156 42.05347656 -30.90070312 42.04445312 -31.84765625 42.03515625 C-32.55792969 42.02355469 -33.26820312 42.01195312 -34 42 C-34 41.67 -34 41.34 -34 41 C-29.545 40.505 -29.545 40.505 -25 40 C-24.67 37.03 -24.34 34.06 -24 31 C-17.67926456 27.96118488 -17.67926456 27.96118488 -14.8125 28.125 C-12.64151546 29.1730615 -10.85978075 30.47232296 -9 32 C-6.52871798 31.0433747 -5.27013551 30.54027102 -4.0625 28.125 C-3.77108889 25.87196444 -3.77108889 25.87196444 -5.5 24.0625 C-7 22 -7 22 -6.6875 19.25 C-6.460625 18.5075 -6.23375 17.765 -6 17 C-9.96 17.495 -9.96 17.495 -14 18 C-14.33 14.04 -14.66 10.08 -15 6 C-13.68 6.33 -12.36 6.66 -11 7 C-11 9.97 -11 12.94 -11 16 C-8.03 16 -5.06 16 -2 16 C-1.67 15.01 -1.34 14.02 -1 13 C-0.505 13.495 -0.505 13.495 0 14 C2.33944736 13.71269945 4.6739143 13.38063221 7 13 C6.89386164 10.54775306 6.89386164 10.54775306 6 8 C3.52363988 6.62533375 3.52363988 6.62533375 1 6 C1 5.67 1 5.34 1 5 C2.65 5 4.3 5 6 5 C5.505 3.515 5.505 3.515 5 2 C2.525 1.505 2.525 1.505 0 1 C0 0.67 0 0.34 0 0 Z " fill="#313F4C" transform="translate(78,45)"/>
<path d="M0 0 C0.804375 0.185625 1.60875 0.37125 2.4375 0.5625 C6.85407058 1.10488586 10.59498699 0.60068359 15 0 C15.99 5.61 16.98 11.22 18 17 C14.38863788 18.80568106 13.455469 19.24851563 9.75 19.125 C8.5125 19.08375 7.275 19.0425 6 19 C5.66179834 17.4176994 5.32964061 15.83410625 5 14.25 C4.814375 13.36828125 4.62875 12.4865625 4.4375 11.578125 C4 9 4 9 4 5 C3.34 5 2.68 5 2 5 C2 4.01 2 3.02 2 2 C1.34 2 0.68 2 0 2 C0 1.34 0 0.68 0 0 Z " fill="#BF925E" transform="translate(30,31)"/>
<path d="M0 0 C1.4540625 0.0309375 1.4540625 0.0309375 2.9375 0.0625 C3.2675 2.0425 3.5975 4.0225 3.9375 6.0625 C2.6175 6.3925 1.2975 6.7225 -0.0625 7.0625 C0.741875 7.289375 1.54625 7.51625 2.375 7.75 C3.220625 8.183125 4.06625 8.61625 4.9375 9.0625 C5.75 11.6875 5.75 11.6875 5.9375 14.0625 C2.71536243 16.21059171 1.65974599 16.35636153 -2.0625 16.0625 C-2.3925 15.7325 -2.7225 15.4025 -3.0625 15.0625 C-5.39067964 14.69489269 -7.7243385 14.36008419 -10.0625 14.0625 C-10.0625 13.0725 -10.0625 12.0825 -10.0625 11.0625 C-8.7425 11.0625 -7.4225 11.0625 -6.0625 11.0625 C-6.0625 10.4025 -6.0625 9.7425 -6.0625 9.0625 C-7.3825 9.0625 -8.7025 9.0625 -10.0625 9.0625 C-10.0625 8.0725 -10.0625 7.0825 -10.0625 6.0625 C-8.4125 6.0625 -6.7625 6.0625 -5.0625 6.0625 C-5.0625 5.0725 -5.0625 4.0825 -5.0625 3.0625 C-6.0525 3.5575 -6.0525 3.5575 -7.0625 4.0625 C-9.61407655 4.1341735 -12.13722971 4.15558442 -14.6875 4.125 C-15.39390625 4.12048828 -16.1003125 4.11597656 -16.828125 4.11132812 C-18.57295275 4.09953875 -20.317737 4.08160324 -22.0625 4.0625 C-22.0625 3.7325 -22.0625 3.4025 -22.0625 3.0625 C-20.13083984 2.86333984 -20.13083984 2.86333984 -18.16015625 2.66015625 C-16.48174638 2.48200101 -14.80336227 2.30360308 -13.125 2.125 C-11.84979492 1.99448242 -11.84979492 1.99448242 -10.54882812 1.86132812 C-9.73994141 1.77431641 -8.93105469 1.68730469 -8.09765625 1.59765625 C-7.3487915 1.519104 -6.59992676 1.44055176 -5.82836914 1.35961914 C-2.96342544 0.87757345 -3.41676415 0.06972988 0 0 Z " fill="#4D5762" transform="translate(80.0625,43.9375)"/>
<path d="M0 0 C1.51400391 0.01740234 1.51400391 0.01740234 3.05859375 0.03515625 C4.07050781 0.04417969 5.08242188 0.05320312 6.125 0.0625 C7.29869141 0.07990234 7.29869141 0.07990234 8.49609375 0.09765625 C9.15609375 2.73765625 9.81609375 5.37765625 10.49609375 8.09765625 C13.72657915 9.47393924 13.72657915 9.47393924 17.49609375 10.09765625 C20.19042692 8.22568171 20.19042692 8.22568171 22.49609375 6.09765625 C26.31798723 6.09765625 28.70873869 8.69743384 31.49609375 11.09765625 C31.35171875 11.65453125 31.20734375 12.21140625 31.05859375 12.78515625 C30.78015625 13.92984375 30.78015625 13.92984375 30.49609375 15.09765625 C30.28984375 15.92265625 30.08359375 16.74765625 29.87109375 17.59765625 C29.29196945 20.36848947 29.29196945 20.36848947 30.49609375 24.09765625 C33.46609375 24.09765625 36.43609375 24.09765625 39.49609375 24.09765625 C40.65384435 27.57090806 40.56476027 30.45833073 40.49609375 34.09765625 C39.50609375 33.60265625 39.50609375 33.60265625 38.49609375 33.09765625 C38.49609375 30.78765625 38.49609375 28.47765625 38.49609375 26.09765625 C37.78582031 26.10925781 37.07554688 26.12085937 36.34375 26.1328125 C35.42464844 26.14183594 34.50554687 26.15085937 33.55859375 26.16015625 C32.64207031 26.17175781 31.72554687 26.18335937 30.78125 26.1953125 C28.49609375 26.09765625 28.49609375 26.09765625 27.49609375 25.09765625 C27.39690298 23.49601709 27.36639477 21.88985707 27.37109375 20.28515625 C27.36722656 18.97611328 27.36722656 18.97611328 27.36328125 17.640625 C27.48494541 15.3111141 27.84094666 13.3282761 28.49609375 11.09765625 C26.84609375 10.10765625 25.19609375 9.11765625 23.49609375 8.09765625 C22.28953125 9.42796875 22.28953125 9.42796875 21.05859375 10.78515625 C19.4296875 12.18359375 19.4296875 12.18359375 17.49609375 13.09765625 C14.12395762 12.62610551 11.65782519 11.48690188 8.49609375 10.09765625 C8.00109375 5.64265625 8.00109375 5.64265625 7.49609375 1.09765625 C4.52609375 1.09765625 1.55609375 1.09765625 -1.50390625 1.09765625 C-1.83390625 4.06765625 -2.16390625 7.03765625 -2.50390625 10.09765625 C-5.45890631 11.41098961 -8.30852734 12.54728162 -11.50390625 13.09765625 C-14.56640625 11.28515625 -14.56640625 11.28515625 -16.50390625 9.09765625 C-19.86982491 10.54019282 -22.01437704 12.43030352 -24.50390625 15.09765625 C-24.11485007 12.37426297 -23.43653058 11.00862411 -21.75390625 8.78515625 C-19.50390625 7.09765625 -19.50390625 7.09765625 -16.87890625 7.41015625 C-15.70328125 7.75046875 -15.70328125 7.75046875 -14.50390625 8.09765625 C-13.84390625 7.76765625 -13.18390625 7.43765625 -12.50390625 7.09765625 C-12.17390625 8.08765625 -11.84390625 9.07765625 -11.50390625 10.09765625 C-7.89398246 9.44180436 -7.89398246 9.44180436 -4.50390625 8.09765625 C-4.12989839 5.77049625 -3.79625892 3.43647763 -3.50390625 1.09765625 C-2.50390625 0.09765625 -2.50390625 0.09765625 0 0 Z " fill="#4E351D" transform="translate(44.50390625,9.90234375)"/>
<path d="M0 0 C0 0.99 0 1.98 0 3 C-1.65 3 -3.3 3 -5 3 C-5 3.99 -5 4.98 -5 6 C-3.68 6 -2.36 6 -1 6 C-1 6.66 -1 7.32 -1 8 C-2.32 8 -3.64 8 -5 8 C-5 8.99 -5 9.98 -5 11 C-3.02 11 -1.04 11 1 11 C1 11.99 1 12.98 1 14 C-1.97 14 -4.94 14 -8 14 C-8.33 11.03 -8.66 8.06 -9 5 C-9.99 4.67 -10.98 4.34 -12 4 C-12 7.63 -12 11.26 -12 15 C-12.99 15 -13.98 15 -15 15 C-15 11.7 -15 8.4 -15 5 C-16.32 5 -17.64 5 -19 5 C-19 4.01 -19 3.02 -19 2 C-16.20849551 1.66525856 -13.41681356 1.33214502 -10.625 1 C-9.43390625 0.85691406 -9.43390625 0.85691406 -8.21875 0.7109375 C-2.2265625 0 -2.2265625 0 0 0 Z " fill="#B0C9DB" transform="translate(75,47)"/>
<path d="M0 0 C0 5.28 0 10.56 0 16 C-0.99 16 -1.98 16 -3 16 C-2.67 14.35 -2.34 12.7 -2 11 C-2.66 11 -3.32 11 -4 11 C-4 11.66 -4 12.32 -4 13 C-5.65 12.67 -7.3 12.34 -9 12 C-9 9.69 -9 7.38 -9 5 C-5 5 -5 5 -3 6 C-3.66 5.01 -4.32 4.02 -5 3 C-6.65 3.33 -8.3 3.66 -10 4 C-10.66 6.31 -11.32 8.62 -12 11 C-12.33 11 -12.66 11 -13 11 C-13.33 7.7 -13.66 4.4 -14 1 C-9.09748502 0.019497 -5.19057759 0 0 0 Z " fill="#D6A15A" transform="translate(60,30)"/>
<path d="M0 0 C0.66 0.33 1.32 0.66 2 1 C1.67 2.32 1.34 3.64 1 5 C2.65 5.33 4.3 5.66 6 6 C6 6.66 6 7.32 6 8 C5.01 8 4.02 8 3 8 C3 11.63 3 15.26 3 19 C1.68 19 0.36 19 -1 19 C-1 15.7 -1 12.4 -1 9 C-2.32 9 -3.64 9 -5 9 C-5 10.65 -5 12.3 -5 14 C-5.66 13.67 -6.32 13.34 -7 13 C-6.67 10.03 -6.34 7.06 -6 4 C-4.02 4 -2.04 4 0 4 C0 2.68 0 1.36 0 0 Z " fill="#B4916C" transform="translate(25,29)"/>
<path d="M0 0 C0.33 0 0.66 0 1 0 C1.33 2.31 1.66 4.62 2 7 C3.98 7 5.96 7 8 7 C5 9 5 9 3 10 C8.14515412 12.65556342 13.72777619 12.98110003 19.25390625 11.32421875 C21.17973733 10.57587555 23.09087234 9.78998386 25 9 C25.99 9 26.98 9 28 9 C20.57318396 14.11625105 14.93493865 14.7911693 6 14 C1.89184995 12.66024782 -1.41375335 10.3908311 -5 8 C-5.1875 5.375 -5.1875 5.375 -5 3 C-3.35 2.67 -1.7 2.34 0 2 C0 1.34 0 0.68 0 0 Z " fill="#26394C" transform="translate(35,58)"/>
<path d="M0 0 C1.32 0 2.64 0 4 0 C4 3.63 4 7.26 4 11 C-0.21629134 13.10814567 -2.39790775 13.17700355 -7 13 C-7 11.02 -7 9.04 -7 7 C-4.69 6.34 -2.38 5.68 0 5 C0 3.35 0 1.7 0 0 Z " fill="#F0A147" transform="translate(20,38)"/>
<path d="M0 0 C3.375 -0.125 3.375 -0.125 7 0 C9 2 9 2 9.125 5.125 C9.08375 6.07375 9.0425 7.0225 9 8 C7.35 8.33 5.7 8.66 4 9 C4 10.65 4 12.3 4 14 C3.01 14 2.02 14 1 14 C0.04738513 9.23692563 -0.08333357 4.8333472 0 0 Z " fill="#B1C4D6" transform="translate(26,52)"/>
<path d="M0 0 C0.99 0 1.98 0 3 0 C3.93385816 2.80157448 4.16354595 4.65447803 4.1875 7.5625 C4.20167969 8.34753906 4.21585938 9.13257813 4.23046875 9.94140625 C4 12 4 12 2 14 C-1 14.3125 -1 14.3125 -4 14 C-6.20914 10.68629 -6.22481553 9.6553979 -6.125 5.8125 C-6.10695313 4.91144531 -6.08890625 4.01039062 -6.0703125 3.08203125 C-6.04710937 2.39496094 -6.02390625 1.70789062 -6 1 C-5.01 1 -4.02 1 -3 1 C-2.67 3.97 -2.34 6.94 -2 10 C-1.01 10.33 -0.02 10.66 1 11 C0.67 7.37 0.34 3.74 0 0 Z " fill="#B4CCDF" transform="translate(21,53)"/>
<path d="M0 0 C1.32 0 2.64 0 4 0 C4.83819158 1.62249941 5.6704116 3.24808497 6.5 4.875 C6.9640625 5.77992187 7.428125 6.68484375 7.90625 7.6171875 C9 10 9 10 9 12 C6.33333333 11.33333333 3.66666667 10.66666667 1 10 C1 10.99 1 11.98 1 13 C-0.32 12.67 -1.64 12.34 -3 12 C-2.01 8.04 -1.02 4.08 0 0 Z " fill="#9EB8C7" transform="translate(50,50)"/>
<path d="M0 0 C1.134375 0.020625 2.26875 0.04125 3.4375 0.0625 C3.4375 1.0525 3.4375 2.0425 3.4375 3.0625 C2.1175 3.3925 0.7975 3.7225 -0.5625 4.0625 C0.241875 4.289375 1.04625 4.51625 1.875 4.75 C2.720625 5.183125 3.56625 5.61625 4.4375 6.0625 C5.25 8.6875 5.25 8.6875 5.4375 11.0625 C2.22941085 13.2012261 1.16051503 13.53980962 -2.5625 13.0625 C-3.2225 12.0725 -3.8825 11.0825 -4.5625 10.0625 C-1.5625 9.0625 -1.5625 9.0625 1.4375 10.0625 C1.4375 9.4025 1.4375 8.7425 1.4375 8.0625 C0.633125 7.918125 -0.17125 7.77375 -1 7.625 C-3.5625 7.0625 -3.5625 7.0625 -4.5625 6.0625 C-4.6875 3.5625 -4.6875 3.5625 -4.5625 1.0625 C-3.5625 0.0625 -3.5625 0.0625 0 0 Z " fill="#ACC4D7" transform="translate(80.5625,46.9375)"/>
<path d="M0 0 C0.268125 0.5775 0.53625 1.155 0.8125 1.75 C1.93012871 4.06163244 1.93012871 4.06163244 3.6875 6 C5 8 5 8 4.9375 10 C3.67333716 12.69688073 2.38726494 14.20955129 0 16 C-3.52324572 15.82813436 -5.02591724 14.98272184 -8 13 C-10.84120234 13.35515029 -13.28047752 14.09349251 -16 15 C-16.144375 16.299375 -16.28875 17.59875 -16.4375 18.9375 C-16.875 22.875 -16.875 22.875 -18 24 C-19.68608966 24.07205511 -21.37500659 24.08386068 -23.0625 24.0625 C-23.98160156 24.05347656 -24.90070312 24.04445313 -25.84765625 24.03515625 C-26.55792969 24.02355469 -27.26820312 24.01195313 -28 24 C-28 23.67 -28 23.34 -28 23 C-25.03 22.67 -22.06 22.34 -19 22 C-18.505 17.545 -18.505 17.545 -18 13 C-11.67926456 9.96118488 -11.67926456 9.96118488 -8.8125 10.125 C-6.64151546 11.1730615 -4.85978075 12.47232296 -3 14 C-0.52871798 13.0433747 0.72986449 12.54027102 1.9375 10.125 C2.2248415 7.86696929 2.2248415 7.86696929 0.5 6 C-1 4 -1 4 -0.6875 1.75 C-0.460625 1.1725 -0.23375 0.595 0 0 Z " fill="#4E361C" transform="translate(72,63)"/>
<path d="M0 0 C-4.40646327 4.62255849 -8.13428139 6.0664302 -14.5 6.3125 C-18.6159333 6.2358921 -21.4605891 5.17809902 -25 3 C-25 2.67 -25 2.34 -25 2 C-16.60182604 0.08041738 -8.59599799 -0.22588024 0 0 Z M-19 3 C-19 3.33 -19 3.66 -19 4 C-17.54207116 4.05399736 -16.08357288 4.09279177 -14.625 4.125 C-13.40683594 4.15980469 -13.40683594 4.15980469 -12.1640625 4.1953125 C-9.78657757 4.21370051 -9.78657757 4.21370051 -8 2 C-11.78706732 2 -15.26513121 2.4254048 -19 3 Z " fill="#D1A063" transform="translate(62,65)"/>
<path d="M0 0 C1.0625 1.875 1.0625 1.875 2 4 C1.67 4.66 1.34 5.32 1 6 C4.96 6.33 8.92 6.66 13 7 C13 7.66 13 8.32 13 9 C12.2265625 8.96519531 11.453125 8.93039063 10.65625 8.89453125 C3.96287095 8.72056967 -0.91030021 9.18936933 -7 12 C-7 11.34 -7 10.68 -7 10 C-8.32 10 -9.64 10 -11 10 C-11.33 8.35 -11.66 6.7 -12 5 C-11.319375 5.20625 -10.63875 5.4125 -9.9375 5.625 C-6.21166669 6.10063829 -3.53007446 5.17669149 0 4 C0 2.68 0 1.36 0 0 Z " fill="#D99D5B" transform="translate(42,16)"/>
<path d="M0 0 C5.95703125 -0.29296875 5.95703125 -0.29296875 8 0 C8.99 0.99 9.98 1.98 11 3 C7.7 3 4.4 3 1 3 C0.938125 4.423125 0.87625 5.84625 0.8125 7.3125 C0.32910549 11.69757874 0.32910549 11.69757874 -2.3125 14.125 C-5 15 -5 15 -7.1875 15 C-9.79173895 13.56317851 -10.14996208 11.76262325 -11 9 C-8.03 9.495 -8.03 9.495 -5 10 C-2.80330908 6.70496362 -1.25096093 3.75288279 0 0 Z " fill="#D8A76D" transform="translate(41,6)"/>
<path d="M0 0 C0.66 0.33 1.32 0.66 2 1 C1.67 2.65 1.34 4.3 1 6 C3.68026455 8.24180162 3.68026455 8.24180162 6 7.8125 C8.11011218 7.15737748 8.11011218 7.15737748 9.25 5.3125 C11 4 11 4 12.89453125 4.1796875 C18.49044118 5.49044118 18.49044118 5.49044118 21 8 C21.26991906 10.68839385 21.08737357 13.29141936 21 16 C19.23537317 12.91190305 19 11.76687864 19 8 C15.73723433 7.13986273 15.73723433 7.13986273 12 7 C9.32601524 8.93897879 9.32601524 8.93897879 7 11 C3.17810652 11 0.78735506 8.40022241 -2 6 C-1.125 1.125 -1.125 1.125 0 0 Z " fill="#503822" transform="translate(23,70)"/>
<path d="M0 0 C0.66 0 1.32 0 2 0 C2.66 4.29 3.32 8.58 4 13 C3.01 13 2.02 13 1 13 C1 11.35 1 9.7 1 8 C-0.65 8 -2.3 8 -4 8 C-4 9.65 -4 11.3 -4 13 C-6.02350324 9.96474514 -6.32124018 8.80573798 -6.625 5.3125 C-6.69976562 4.50425781 -6.77453125 3.69601563 -6.8515625 2.86328125 C-6.90054688 2.24839844 -6.94953125 1.63351563 -7 1 C-6.01 1.33 -5.02 1.66 -4 2 C-4 3.32 -4 4.64 -4 6 C-2.68 6 -1.36 6 0 6 C0 4.02 0 2.04 0 0 Z " fill="#4C3B25" transform="translate(68,30)"/>
<path d="M0 0 C1.1446875 0.3403125 1.1446875 0.3403125 2.3125 0.6875 C2.6425 1.6775 2.9725 2.6675 3.3125 3.6875 C1.6625 3.3575 0.0125 3.0275 -1.6875 2.6875 C-1.6875 4.9975 -1.6875 7.3075 -1.6875 9.6875 C-0.3675 10.0175 0.9525 10.3475 2.3125 10.6875 C2.3125 10.0275 2.3125 9.3675 2.3125 8.6875 C2.9725 8.6875 3.6325 8.6875 4.3125 8.6875 C3.9825 10.0075 3.6525 11.3275 3.3125 12.6875 C0.5 12.9375 0.5 12.9375 -2.6875 12.6875 C-5.28564888 10.43577097 -5.64466454 9.03732295 -6.0625 5.625 C-5.6875 2.6875 -5.6875 2.6875 -4.5 0.75 C-2.6875 -0.3125 -2.6875 -0.3125 0 0 Z " fill="#584637" transform="translate(53.6875,32.3125)"/>
<path d="M0 0 C1.98 1.32 3.96 2.64 6 4 C5.01 9.28 4.02 14.56 3 20 C2.67 20 2.34 20 2 20 C2.33 16.04 2.66 12.08 3 8 C1.68 7.34 0.36 6.68 -1 6 C-1 5.34 -1 4.68 -1 4 C-2.32 4.33 -3.64 4.66 -5 5 C-3.35 3.35 -1.7 1.7 0 0 Z " fill="#CE9753" transform="translate(68,17)"/>
<path d="M0 0 C0.33 0.99 0.66 1.98 1 3 C0.34 3 -0.32 3 -1 3 C-1 6.63 -1 10.26 -1 14 C-1.99 14 -2.98 14 -4 14 C-4 10.7 -4 7.4 -4 4 C-5.32 4 -6.64 4 -8 4 C-8 3.01 -8 2.02 -8 1 C-5.36 0.67 -2.72 0.34 0 0 Z " fill="#BAD2E4" transform="translate(64,48)"/>
<path d="M0 0 C0.99 0.33 1.98 0.66 3 1 C3.9140625 3.6875 3.9140625 3.6875 4.625 7 C5.17947093 10.81075302 5.17947093 10.81075302 7 14 C9.32817964 14.36760731 11.6618385 14.70241581 14 15 C13.67 15.66 13.34 16.32 13 17 C10 17 7 17 4 17 C3.34 15.02 2.68 13.04 2 11 C1.34 11 0.68 11 0 11 C0 7.37 0 3.74 0 0 Z " fill="#C59758" transform="translate(9,54)"/>
<path d="M0 0 C2.31 0 4.62 0 7 0 C4 2 4 2 2 2 C2 2.99 2 3.98 2 5 C3.65 5 5.3 5 7 5 C7 5.66 7 6.32 7 7 C5.68 7 4.36 7 3 7 C3 7.99 3 8.98 3 10 C4.98 10 6.96 10 9 10 C9 10.66 9 11.32 9 12 C6.36 12 3.72 12 1 12 C-0.3271261 8.0186217 -0.06915913 4.14954773 0 0 Z " fill="#4A362E" transform="translate(36,34)"/>
<path d="M0 0 C0.66 0 1.32 0 2 0 C1.649375 0.680625 1.29875 1.36125 0.9375 2.0625 C-0.22620603 5.7087789 0.27154898 8.28489978 1 12 C3.97 12 6.94 12 10 12 C11.1577506 15.47325181 11.06866652 18.36067448 11 22 C10.34 21.67 9.68 21.34 9 21 C9 18.69 9 16.38 9 14 C8.28972656 14.01160156 7.57945313 14.02320313 6.84765625 14.03515625 C5.92855469 14.04417969 5.00945312 14.05320312 4.0625 14.0625 C3.14597656 14.07410156 2.22945313 14.08570313 1.28515625 14.09765625 C-1 14 -1 14 -2 13 C-2.12494616 11.37860563 -2.17571624 9.75115878 -2.1875 8.125 C-2.20167969 7.24070312 -2.21585937 6.35640625 -2.23046875 5.4453125 C-2 3 -2 3 0 0 Z " fill="#543920" transform="translate(74,22)"/>
<path d="M0 0 C1.32 0 2.64 0 4 0 C5.2062252 3.61867559 5.10816918 6.92506251 5.0625 10.6875 C5.05798828 11.38939453 5.05347656 12.09128906 5.04882812 12.81445312 C5.03706927 14.54300538 5.01913454 16.27151365 5 18 C2.03 18 -0.94 18 -4 18 C-4 17.67 -4 17.34 -4 17 C-1.36 17 1.28 17 4 17 C3.67 13.04 3.34 9.08 3 5 C2.34 5 1.68 5 1 5 C1 8.3 1 11.6 1 15 C0.67 15 0.34 15 0 15 C0 11.37 0 7.74 0 4 C0.99 4 1.98 4 3 4 C2.01 2.68 1.02 1.36 0 0 Z " fill="#D6A868" transform="translate(28,33)"/>
<path d="M0 0 C2.64 0 5.28 0 8 0 C7.8125 2.875 7.8125 2.875 7 6 C4.625 7.4375 4.625 7.4375 2 8 C1.01 7.67 0.02 7.34 -1 7 C-0.67 4.69 -0.34 2.38 0 0 Z " fill="#ECA245" transform="translate(73,37)"/>
<path d="M0 0 C1.74796875 -0.02126953 1.74796875 -0.02126953 3.53125 -0.04296875 C6.5 0.1875 6.5 0.1875 8.5 2.1875 C6.29248152 2.52618777 4.08394089 2.85821689 1.875 3.1875 C0.64523438 3.373125 -0.58453125 3.55875 -1.8515625 3.75 C-5.1166027 4.14152516 -8.21712451 4.26830924 -11.5 4.1875 C-7.728056 0.244104 -5.46742736 0.0302402 0 0 Z " fill="#CD9F6D" transform="translate(47.5,25.8125)"/>
<path d="M0 0 C1.32 0 2.64 0 4 0 C4 1.32 4 2.64 4 4 C7.465 3.505 7.465 3.505 11 3 C11.66 4.65 12.32 6.3 13 8 C12.34 8.66 11.68 9.32 11 10 C11 9.01 11 8.02 11 7 C6.545 7.495 6.545 7.495 2 8 C0.74335022 5.09399739 0 3.20395416 0 0 Z M8 4 C7.01 4.66 6.02 5.32 5 6 C6.65 5.67 8.3 5.34 10 5 C9.34 4.67 8.68 4.34 8 4 Z " fill="#C58D53" transform="translate(73,27)"/>
<path d="M0 0 C1.98 0 3.96 0 6 0 C6 2.64 6 5.28 6 8 C4.35 8.66 2.7 9.32 1 10 C0.40835621 6.59804823 0 3.4434533 0 0 Z " fill="#EBA648" transform="translate(44,75)"/>
<path d="M0 0 C5.7109375 1.859375 5.7109375 1.859375 8.3125 3.125 C15.4518469 5.44943852 21.28849886 3.77717288 28 1 C28.99 1 29.98 1 31 1 C23.57230475 6.11685673 17.93521923 6.78933032 9 6 C5.85731511 5.00284735 3.79616834 3.82826391 1 2 C0.67 1.34 0.34 0.68 0 0 Z " fill="#3F2D19" transform="translate(32,66)"/>
<path d="M0 0 C0.33 0 0.66 0 1 0 C1.66 3.3 2.32 6.6 3 10 C0.69 10.33 -1.62 10.66 -4 11 C-4.33 10.34 -4.66 9.68 -5 9 C-3.35 8.67 -1.7 8.34 0 8 C0 7.34 0 6.68 0 6 C-1.98 6 -3.96 6 -6 6 C-6 5.01 -6 4.02 -6 3 C-4.02 2.67 -2.04 2.34 0 2 C0 1.34 0 0.68 0 0 Z " fill="#DCA559" transform="translate(45,38)"/>
<path d="M0 0 C1.32 0 2.64 0 4 0 C4 3.3 4 6.6 4 10 C1.03 9.505 1.03 9.505 -2 9 C-2 8.34 -2 7.68 -2 7 C-2.66 6.67 -3.32 6.34 -4 6 C-2.68 5.67 -1.36 5.34 0 5 C0 3.35 0 1.7 0 0 Z " fill="#E7A74B" transform="translate(20,38)"/>
<path d="M0 0 C2.0625 1.75 2.0625 1.75 4 4 C3.91773794 6.71464802 3.23959034 7.73165881 1.4375 9.75 C0.7259375 10.36875 0.7259375 10.36875 0 11 C-3.65316671 9.75023244 -4.78065836 9.32901247 -7 6 C-4.03 6.495 -4.03 6.495 -1 7 C-0.67 4.69 -0.34 2.38 0 0 Z " fill="#D09C5C" transform="translate(71,67)"/>
<path d="M0 0 C0.99 0.66 1.98 1.32 3 2 C3.64825345 7.94232331 3.64825345 7.94232331 1.8125 10.9375 C-0.56041618 12.32851983 -2.29686424 12.21917317 -5 12 C-4.319375 11.484375 -3.63875 10.96875 -2.9375 10.4375 C-0.57571378 8.02745496 -0.57571378 8.02745496 -1.25 4.25 C-1.4975 3.1775 -1.745 2.105 -2 1 C-1.34 0.67 -0.68 0.34 0 0 Z " fill="#ADC6DF" transform="translate(44,52)"/>
<path d="M0 0 C1.32 0.33 2.64 0.66 4 1 C4 4.63 4 8.26 4 12 C3.01 12 2.02 12 1 12 C0.67 8.04 0.34 4.08 0 0 Z " fill="#243952" transform="translate(63,51)"/>
<path d="M0 0 C0.99 0.33 1.98 0.66 3 1 C3.33 2.98 3.66 4.96 4 7 C4.66 6.34 5.32 5.68 6 5 C6 6.98 6 8.96 6 11 C5.01 11 4.02 11 3 11 C3 11.99 3 12.98 3 14 C2.34 14 1.68 14 1 14 C0.67 9.38 0.34 4.76 0 0 Z " fill="#9A7247" transform="translate(59,33)"/>
<path d="M0 0 C0 2.97 0 5.94 0 9 C-2.31 8.67 -4.62 8.34 -7 8 C-7 7.01 -7 6.02 -7 5 C-5.35 4.67 -3.7 4.34 -2 4 C-2 3.34 -2 2.68 -2 2 C-3.32 1.67 -4.64 1.34 -6 1 C-3 0 -3 0 0 0 Z " fill="#C69862" transform="translate(45,31)"/>
<path d="M0 0 C1.37310707 1.29233607 2.71034824 2.62437146 4 4 C3.67 4.99 3.34 5.98 3 7 C1.824375 6.9690625 1.824375 6.9690625 0.625 6.9375 C-1.98114961 6.81315937 -1.98114961 6.81315937 -4 8 C-4.6875 5.6875 -4.6875 5.6875 -5 3 C-3.40083326 0.79162689 -2.76966516 0 0 0 Z " fill="#EDA146" transform="translate(67,21)"/>
<path d="M0 0 C0.37125 0.66 0.7425 1.32 1.125 2 C2.8912495 4.31093452 2.8912495 4.31093452 6 4.375 C9.17702205 4.2049729 9.17702205 4.2049729 12 2 C12.33 2.99 12.66 3.98 13 5 C12.01 6.485 12.01 6.485 11 8 C9.54077307 7.88590407 8.08259402 7.75834456 6.625 7.625 C5.40683594 7.52058594 5.40683594 7.52058594 4.1640625 7.4140625 C2 7 2 7 0 5 C-0.125 2.375 -0.125 2.375 0 0 Z " fill="#363842" transform="translate(14,62)"/>
<path d="M0 0 C0.66 0 1.32 0 2 0 C2 1.65 2 3.3 2 5 C2.99 5 3.98 5 5 5 C5 5.66 5 6.32 5 7 C4.34 7 3.68 7 3 7 C3 8.65 3 10.3 3 12 C2.01 12 1.02 12 0 12 C-0.19477739 10.37585622 -0.38059458 8.75063577 -0.5625 7.125 C-0.66691406 6.22007813 -0.77132813 5.31515625 -0.87890625 4.3828125 C-1 2 -1 2 0 0 Z " fill="#B3CCE0" transform="translate(27,54)"/>
<path d="M0 0 C1.32 0 2.64 0 4 0 C4 1.32 4 2.64 4 4 C3.34 4 2.68 4 2 4 C1.34 6.97 0.68 9.94 0 13 C-0.99 12.67 -1.98 12.34 -3 12 C-2.01 8.04 -1.02 4.08 0 0 Z " fill="#B3C9DE" transform="translate(50,50)"/>
<path d="M0 0 C-3.45214853 2.30143236 -4.23479324 2.13833854 -8.1875 1.625 C-9.08855469 1.51414062 -9.98960938 1.40328125 -10.91796875 1.2890625 C-11.94857422 1.14597656 -11.94857422 1.14597656 -13 1 C-13 0.67 -13 0.34 -13 0 C-11.35 -0.33 -9.7 -0.66 -8 -1 C-10.97 -1.33 -13.94 -1.66 -17 -2 C-17 -2.33 -17 -2.66 -17 -3 C-10.63729401 -4.73528345 -5.38959977 -3.75638772 0 0 Z " fill="#5D4C3C" transform="translate(62,28)"/>
<path d="M0 0 C1.32 0 2.64 0 4 0 C4 0.99 4 1.98 4 3 C6.31 3 8.62 3 11 3 C11 3.33 11 3.66 11 4 C2.09 4.99 2.09 4.99 -7 6 C-4 4 -4 4 -1 3 C-0.67 2.01 -0.34 1.02 0 0 Z " fill="#292E31" transform="translate(51,60)"/>
<path d="M0 0 C2.97 0 5.94 0 9 0 C9 0.66 9 1.32 9 2 C7.68 2 6.36 2 5 2 C5 5.3 5 8.6 5 12 C4.34 12 3.68 12 3 12 C3 8.7 3 5.4 3 2 C2.01 2 1.02 2 0 2 C0 1.34 0 0.68 0 0 Z " fill="#4B341B" transform="translate(22,35)"/>
<path d="M0 0 C0 0.33 0 0.66 0 1 C-1.74985354 1.47970123 -3.49988891 1.95873924 -5.25 2.4375 C-6.22453125 2.70433594 -7.1990625 2.97117187 -8.203125 3.24609375 C-10.46372653 3.85544584 -12.72622009 4.44238255 -15 5 C-15 5.66 -15 6.32 -15 7 C-14.34 7.33 -13.68 7.66 -13 8 C-14.875 8.625 -14.875 8.625 -17 9 C-17.66 8.34 -18.32 7.68 -19 7 C-17.75627811 6.01287122 -16.50472782 5.03560095 -15.25 4.0625 C-14.55390625 3.51722656 -13.8578125 2.97195312 -13.140625 2.41015625 C-8.9121205 -0.37540967 -4.97613023 -0.09569481 0 0 Z " fill="#443329" transform="translate(50,24)"/>
<path d="M0 0 C1.65 0 3.3 0 5 0 C4.95875 0.9075 4.9175 1.815 4.875 2.75 C4.99531556 5.8782046 5.3914708 7.38614006 7 10 C4.5625 9.625 4.5625 9.625 2 9 C1.67 8.34 1.34 7.68 1 7 C0.443125 6.0409375 0.443125 6.0409375 -0.125 5.0625 C-1 3 -1 3 0 0 Z M2 1 C3 3 3 3 3 3 Z " fill="#D8A965" transform="translate(17,70)"/>
<path d="M0 0 C-0.33 1.98 -0.66 3.96 -1 6 C-3.31 6.33 -5.62 6.66 -8 7 C-7.08529012 1.6946827 -5.46561428 0 0 0 Z " fill="#E1A555" transform="translate(72,62)"/>
<path d="M0 0 C0.33 0 0.66 0 1 0 C1 1.98 1 3.96 1 6 C1.99 6.33 2.98 6.66 4 7 C2.375 8.625 2.375 8.625 0 10 C-3.125 9.4375 -3.125 9.4375 -6 8 C-7.375 5.875 -7.375 5.875 -8 4 C-5.36 4.33 -2.72 4.66 0 5 C0 3.35 0 1.7 0 0 Z " fill="#54575D" transform="translate(63,57)"/>
<path d="M0 0 C2.97 0 5.94 0 9 0 C9.33 2.97 9.66 5.94 10 9 C9.34 9 8.68 9 8 9 C7.67 7.02 7.34 5.04 7 3 C4.03 2.505 4.03 2.505 1 2 C0.67 2.99 0.34 3.98 0 5 C0 3.35 0 1.7 0 0 Z " fill="#C89C69" transform="translate(43,11)"/>
<path d="M0 0 C0.33 0 0.66 0 1 0 C1 1.65 1 3.3 1 5 C2.32 5.33 3.64 5.66 5 6 C5 5.01 5 4.02 5 3 C6.65 3 8.3 3 10 3 C8.68 4.65 7.36 6.3 6 8 C3.03824877 7.38722388 1.61941217 6.74627478 -1 5 C-0.67 3.35 -0.34 1.7 0 0 Z " fill="#D5A05F" transform="translate(24,71)"/>
<path d="M0 0 C1.32 0 2.64 0 4 0 C4 1.98 4 3.96 4 6 C0.535 7.485 0.535 7.485 -3 9 C-3 8.01 -3 7.02 -3 6 C-2.01 6 -1.02 6 0 6 C0 4.02 0 2.04 0 0 Z " fill="#E4A862" transform="translate(65,38)"/>
<path d="M0 0 C0.99 0.33 1.98 0.66 3 1 C3.144375 1.639375 3.28875 2.27875 3.4375 2.9375 C3.80104993 5.20311706 3.80104993 5.20311706 6.0625 6.25 C6.701875 6.4975 7.34125 6.745 8 7 C6.35 7 4.7 7 3 7 C3 8.65 3 10.3 3 12 C0.97649676 8.96474514 0.67875982 7.80573798 0.375 4.3125 C0.30023438 3.50425781 0.22546875 2.69601563 0.1484375 1.86328125 C0.09945312 1.24839844 0.05046875 0.63351563 0 0 Z " fill="#483833" transform="translate(61,31)"/>
<path d="M0 0 C0.33 0 0.66 0 1 0 C1 1.65 1 3.3 1 5 C1.66 5.33 2.32 5.66 3 6 C0.82311446 7.32168051 -0.55217933 8.0131712 -3.125 7.9375 C-5 7 -5 7 -6.25 4.4375 C-6.4975 3.633125 -6.745 2.82875 -7 2 C-4.03 2.495 -4.03 2.495 -1 3 C-0.67 2.01 -0.34 1.02 0 0 Z " fill="#DDB165" transform="translate(37,13)"/>
<path d="M0 0 C1.7824918 3.33311475 2.48792856 6.24480943 3 10 C6.3 10 9.6 10 13 10 C13 10.33 13 10.66 13 11 C11.20866022 11.05391993 9.41686101 11.09275571 7.625 11.125 C6.62726562 11.14820312 5.62953125 11.17140625 4.6015625 11.1953125 C2 11 2 11 0 9 C-0.1953125 6.8359375 -0.1953125 6.8359375 -0.125 4.375 C-0.10695312 3.55773437 -0.08890625 2.74046875 -0.0703125 1.8984375 C-0.04710937 1.27195312 -0.02390625 0.64546875 0 0 Z " fill="#D6A46C" transform="translate(41,78)"/>
<path d="M0 0 C1.32 0.33 2.64 0.66 4 1 C4.33 2.65 4.66 4.3 5 6 C3.68 6.33 2.36 6.66 1 7 C0.67 4.69 0.34 2.38 0 0 Z " fill="#264056" transform="translate(39,54)"/>
<path d="M0 0 C0.33 0 0.66 0 1 0 C1.2475 0.969375 1.495 1.93875 1.75 2.9375 C2.1625 3.948125 2.575 4.95875 3 6 C5.03243548 6.96877057 5.03243548 6.96877057 7 7 C7 6.34 7 5.68 7 5 C7.66 5 8.32 5 9 5 C8.67 6.32 8.34 7.64 8 9 C5.125 9.125 5.125 9.125 2 9 C0 7 0 7 -0.125 3.375 C-0.08375 2.26125 -0.0425 1.1475 0 0 Z " fill="#463326" transform="translate(49,36)"/>
<path d="M0 0 C3.3 0 6.6 0 10 0 C9.67 0.66 9.34 1.32 9 2 C6.4375 2.625 6.4375 2.625 4 3 C3.34 5.31 2.68 7.62 2 10 C1.67 10 1.34 10 1 10 C0.67 6.7 0.34 3.4 0 0 Z " fill="#CEA770" transform="translate(46,31)"/>
<path d="M0 0 C0.66 0 1.32 0 2 0 C1.79375 0.94875 1.5875 1.8975 1.375 2.875 C1.25125 3.90625 1.1275 4.9375 1 6 C1.66 6.66 2.32 7.32 3 8 C1.02 8.33 -0.96 8.66 -3 9 C-3 9.66 -3 10.32 -3 11 C-4.32 10.67 -5.64 10.34 -7 10 C-6.67 9.34 -6.34 8.68 -6 8 C-3.4375 7.375 -3.4375 7.375 -1 7 C-0.67 4.69 -0.34 2.38 0 0 Z " fill="#495B66" transform="translate(47,56)"/>
<path d="M0 0 C1.98 0.99 3.96 1.98 6 3 C6 3.33 6 3.66 6 4 C-3.78678038 6.57995736 -3.78678038 6.57995736 -8 5 C-8.33 4.34 -8.66 3.68 -9 3 C-6.03 3 -3.06 3 0 3 C0 2.01 0 1.02 0 0 Z " fill="#46494F" transform="translate(76,58)"/>
<path d="M0 0 C0.99 0 1.98 0 3 0 C3 2.97 3 5.94 3 9 C-0.06000643 5.93999357 -0.56942344 5.09047728 -1 1 C-0.67 0.67 -0.34 0.34 0 0 Z " fill="#2A4355" transform="translate(57,52)"/>
<path d="M0 0 C0.66 0 1.32 0 2 0 C1.649375 0.66 1.29875 1.32 0.9375 2 C-0.32853409 6.0513091 0.29385518 8.83374555 1 13 C0.01 13 -0.98 13 -2 13 C-2.05416188 11.39620659 -2.09286638 9.79188594 -2.125 8.1875 C-2.14820312 7.29417969 -2.17140625 6.40085937 -2.1953125 5.48046875 C-2 3 -2 3 0 0 Z " fill="#4D412D" transform="translate(74,22)"/>
<path d="M0 0 C0.99 0.33 1.98 0.66 3 1 C4.23076923 6.41538462 4.23076923 6.41538462 3.0625 9.375 C2.711875 9.91125 2.36125 10.4475 2 11 C1.34 11 0.68 11 0 11 C0.226875 10.0925 0.45375 9.185 0.6875 8.25 C1.32605545 5.00496499 1.32605545 5.00496499 -0.4375 2.625 C-0.953125 2.08875 -1.46875 1.5525 -2 1 C-1.34 0.67 -0.68 0.34 0 0 Z " fill="#D49F5F" transform="translate(74,16)"/>
<path d="M0 0 C0.33 0.66 0.66 1.32 1 2 C1.66 2.33 2.32 2.66 3 3 C0.65887549 4.44977894 -0.5796929 5.04314411 -3.359375 4.7578125 C-4.54273437 4.44457031 -4.54273437 4.44457031 -5.75 4.125 C-6.54921875 3.92132813 -7.3484375 3.71765625 -8.171875 3.5078125 C-9.07679687 3.25644531 -9.07679687 3.25644531 -10 3 C-10 2.67 -10 2.34 -10 2 C-9.04287109 1.90912109 -9.04287109 1.90912109 -8.06640625 1.81640625 C-6.82697266 1.69072266 -6.82697266 1.69072266 -5.5625 1.5625 C-4.73878906 1.48128906 -3.91507812 1.40007813 -3.06640625 1.31640625 C-1.01337975 1.21069185 -1.01337975 1.21069185 0 0 Z " fill="#C09666" transform="translate(86,60)"/>
<path d="M0 0 C0.33 0 0.66 0 1 0 C1 2.31 1 4.62 1 7 C1.66 7 2.32 7 3 7 C3 7.99 3 8.98 3 10 C0.69 10 -1.62 10 -4 10 C-3.525625 9.649375 -3.05125 9.29875 -2.5625 8.9375 C-0.32126175 6.15836457 -0.32882342 3.4855283 0 0 Z " fill="#EEA151" transform="translate(44,13)"/>
<path d="M0 0 C0.350625 0.474375 0.70125 0.94875 1.0625 1.4375 C3.84163543 3.67873825 6.5144717 3.67117658 10 4 C9.67 4.66 9.34 5.32 9 6 C6 6 3 6 0 6 C-1.24546405 3.50907189 -0.7767578 2.58919267 0 0 Z " fill="#9E8958" transform="translate(13,65)"/>
<path d="M0 0 C0.33 0 0.66 0 1 0 C1 3.63 1 7.26 1 11 C0.01 11 -0.98 11 -2 11 C-1.125 3.375 -1.125 3.375 0 0 Z " fill="#ADC5DA" transform="translate(62,51)"/>
<path d="M0 0 C0.804375 0.4640625 0.804375 0.4640625 1.625 0.9375 C4.3984957 2.17827439 7.00042837 2.5909675 10 3 C9.01 3.33 8.02 3.66 7 4 C7 4.66 7 5.32 7 6 C4.03 5.505 4.03 5.505 1 5 C0.67 3.35 0.34 1.7 0 0 Z " fill="#E7A35B" transform="translate(33,69)"/>
<path d="M0 0 C3.5 0.3125 3.5 0.3125 7 1 C7.33 1.66 7.66 2.32 8 3 C5.69 3.33 3.38 3.66 1 4 C0.34 3.01 -0.32 2.02 -1 1 C-0.67 0.67 -0.34 0.34 0 0 Z " fill="#ADCCDA" transform="translate(77,56)"/>
<path d="M0 0 C3.465 1.485 3.465 1.485 7 3 C7 3.66 7 4.32 7 5 C3.37 5 -0.26 5 -4 5 C-2.68 4.67 -1.36 4.34 0 4 C0 2.68 0 1.36 0 0 Z " fill="#20374D" transform="translate(75,52)"/>
<path d="M0 0 C-0.33 0.99 -0.66 1.98 -1 3 C-3.31 3.33 -5.62 3.66 -8 4 C-7 1 -7 1 -5.125 -0.25 C-3 -1 -3 -1 0 0 Z " fill="#E5A44C" transform="translate(65,70)"/>
<path d="M0 0 C0.66 1.32 1.32 2.64 2 4 C2.66 2.68 3.32 1.36 4 0 C4 2.64 4 5.28 4 8 C2.68 7.67 1.36 7.34 0 7 C0 4.69 0 2.38 0 0 Z " fill="#3A5270" transform="translate(18,56)"/>
<path d="M0 0 C0.33 0.66 0.66 1.32 1 2 C0.67 2.66 0.34 3.32 0 4 C1.65 4 3.3 4 5 4 C5 4.33 5 4.66 5 5 C3.35 5 1.7 5 0 5 C0 7.97 0 10.94 0 14 C-0.33 14 -0.66 14 -1 14 C-1.22142255 12.04310341 -1.4267568 10.08438048 -1.625 8.125 C-1.74101562 7.03445312 -1.85703125 5.94390625 -1.9765625 4.8203125 C-1.98429687 3.88960937 -1.99203125 2.95890625 -2 2 C-1.34 1.34 -0.68 0.68 0 0 Z " fill="#AC7E4C" transform="translate(18,27)"/>
<path d="M0 0 C1.65 0.33 3.3 0.66 5 1 C5.33 2.32 5.66 3.64 6 5 C5.01 5.495 5.01 5.495 4 6 C3.34 5.67 2.68 5.34 2 5 C2 4.34 2 3.68 2 3 C1.01 2.67 0.02 2.34 -1 2 C-0.67 1.34 -0.34 0.68 0 0 Z " fill="#E2A24D" transform="translate(53,20)"/>
<path d="M0 0 C0.6875 2.0625 0.6875 2.0625 1 4 C-1.92879371 3.37240135 -4.36095629 2.41377341 -7 1 C-3.375 -1.125 -3.375 -1.125 0 0 Z " fill="#B9D1E5" transform="translate(58,58)"/>
<path d="M0 0 C0.66 0 1.32 0 2 0 C4 3 4 3 4 6 C2.68 6 1.36 6 0 6 C-0.38218767 4.34385343 -0.71395102 2.67542976 -1 1 C-0.67 0.67 -0.34 0.34 0 0 Z " fill="#C7914E" transform="translate(47,41)"/>
<path d="M0 0 C3.72433382 1.2125738 7.37802806 2.50859979 11 4 C11 4.66 11 5.32 11 6 C6.14922412 4.88059018 3.222107 3.8665284 0 0 Z " fill="#4C4033" transform="translate(32,66)"/>
<path d="M0 0 C1.98 0 3.96 0 6 0 C6 0.99 6 1.98 6 3 C3.69 3 1.38 3 -1 3 C-0.67 2.01 -0.34 1.02 0 0 Z " fill="#B4BFD5" transform="translate(70,58)"/>
<path d="M0 0 C1.875 0.25 1.875 0.25 4 1 C5.25 3.0625 5.25 3.0625 6 5 C5.01 5.33 4.02 5.66 3 6 C3 5.34 3 4.68 3 4 C2.01 4 1.02 4 0 4 C0 2.68 0 1.36 0 0 Z " fill="#728EA2" transform="translate(29,55)"/>
<path d="M0 0 C4.62 0 9.24 0 14 0 C13.01 1.485 13.01 1.485 12 3 C11.34 3 10.68 3 10 3 C10 2.34 10 1.68 10 1 C6.7 1 3.4 1 0 1 C0 0.67 0 0.34 0 0 Z " fill="#AE906D" transform="translate(48,65)"/>
<path d="M0 0 C3.375 -0.125 3.375 -0.125 7 0 C7.66 0.66 8.32 1.32 9 2 C8.625 4.625 8.625 4.625 8 7 C7.79375 6.38125 7.5875 5.7625 7.375 5.125 C5.45224112 2.15346355 3.33405473 1.86975341 0 1 C0 0.67 0 0.34 0 0 Z " fill="#2D2933" transform="translate(78,45)"/>
<path d="M0 0 C0 2.97 0 5.94 0 9 C-0.66 8.67 -1.32 8.34 -2 8 C-2 6.02 -2 4.04 -2 2 C-3.32 1.67 -4.64 1.34 -6 1 C-3 0 -3 0 0 0 Z " fill="#CDA773" transform="translate(45,31)"/>
<path d="M0 0 C2.64 0 5.28 0 8 0 C7.67 1.32 7.34 2.64 7 4 C6.01 4 5.02 4 4 4 C4 3.01 4 2.02 4 1 C2.68 0.67 1.36 0.34 0 0 Z " fill="#BE8F4F" transform="translate(52,30)"/>
<path d="M0 0 C0.99 0 1.98 0 3 0 C3 2.31 3 4.62 3 7 C2.01 7.495 2.01 7.495 1 8 C0.67 5.36 0.34 2.72 0 0 Z " fill="#1A2E45" transform="translate(18,53)"/>
<path d="M0 0 C1.32 0 2.64 0 4 0 C4 1.32 4 2.64 4 4 C2.35 4 0.7 4 -1 4 C-0.67 2.68 -0.34 1.36 0 0 Z " fill="#2A4152" transform="translate(51,60)"/>
<path d="M0 0 C0 0.99 0 1.98 0 3 C-2.31 3.33 -4.62 3.66 -7 4 C-3.375 0 -3.375 0 0 0 Z " fill="#B5D0E4" transform="translate(46,60)"/>
<path d="M0 0 C1.98 0 3.96 0 6 0 C5.67 1.65 5.34 3.3 5 5 C4.34 5 3.68 5 3 5 C1.375 2.5 1.375 2.5 0 0 Z " fill="#1F3457" transform="translate(44,51)"/>
<path d="M0 0 C3.63 0 7.26 0 11 0 C11 0.33 11 0.66 11 1 C7.37 1 3.74 1 0 1 C0 0.67 0 0.34 0 0 Z " fill="#CD9F4A" transform="translate(43,90)"/>
<path d="M0 0 C0.33 0 0.66 0 1 0 C1 2.97 1 5.94 1 9 C0.67 9 0.34 9 0 9 C0 6.03 0 3.06 0 0 Z " fill="#D2A15D" transform="translate(6,44)"/>
<path d="M0 0 C0.33 0 0.66 0 1 0 C1 1.98 1 3.96 1 6 C0.67 6 0.34 6 0 6 C0 4.02 0 2.04 0 0 Z " fill="#D3A36B" transform="translate(91,53)"/>
<path d="M0 0 C0.33 0 0.66 0 1 0 C1 1.98 1 3.96 1 6 C0.67 6 0.34 6 0 6 C0 4.02 0 2.04 0 0 Z " fill="#D3A575" transform="translate(90,47)"/>
<path d="M0 0 C0.33 0 0.66 0 1 0 C1 1.98 1 3.96 1 6 C0.67 6 0.34 6 0 6 C0 4.02 0 2.04 0 0 Z " fill="#D2974E" transform="translate(88,39)"/>
<path d="M0 0 C0.33 0 0.66 0 1 0 C1 1.65 1 3.3 1 5 C0.67 5 0.34 5 0 5 C0 3.35 0 1.7 0 0 Z " fill="#BA6E4A" transform="translate(39,82)"/>
<path d="M0 0 C0 0.99 0 1.98 0 3 C-0.66 2.67 -1.32 2.34 -2 2 C-1.34 1.34 -0.68 0.68 0 0 Z " fill="#B48239" transform="translate(76,77)"/>
<path d="M0 0 C0.33 0 0.66 0 1 0 C1 1.65 1 3.3 1 5 C0.67 5 0.34 5 0 5 C0 3.35 0 1.7 0 0 Z " fill="#D98A55" transform="translate(87,34)"/>
<path d="M0 0 C0.33 0 0.66 0 1 0 C1 1.65 1 3.3 1 5 C0.67 5 0.34 5 0 5 C0 3.35 0 1.7 0 0 Z " fill="#DCA054" transform="translate(16,21)"/>
<path d="M0 0 C4 1 4 1 4 1 Z " fill="#C88D55" transform="translate(68,82)"/>
<path d="M0 0 C1 4 1 4 1 4 Z " fill="#DE852F" transform="translate(56,10)"/>
<path d="M0 0 C1 4 1 4 1 4 Z " fill="#D1A356" transform="translate(38,9)"/>
<path d="" fill="#F7D06D" transform="translate(0,0)"/>
<path d="M0 0 C3 1 3 1 3 1 Z " fill="#F7DAA7" transform="translate(27,84)"/>
<path d="" fill="#EFBC6B" transform="translate(0,0)"/>
<path d="" fill="#EADC5F" transform="translate(0,0)"/>
<path d="" fill="#FFDB72" transform="translate(0,0)"/>
<path d="" fill="#C8AE85" transform="translate(0,0)"/>
<path d="" fill="#CD9C70" transform="translate(0,0)"/>
<path d="" fill="#AF7920" transform="translate(0,0)"/>
<path d="" fill="#E3BB56" transform="translate(0,0)"/>
<path d="M0 0 C2 1 2 1 2 1 Z " fill="#F4A561" transform="translate(60,17)"/>
<path d="" fill="#BA5827" transform="translate(0,0)"/>
<path d="" fill="#FFFF89" transform="translate(0,0)"/>
<path d="" fill="#FEE653" transform="translate(0,0)"/>
<path d="" fill="#9A8F7E" transform="translate(0,0)"/>
<path d="" fill="#E2AC71" transform="translate(0,0)"/>
<path d="" fill="#AE9756" transform="translate(0,0)"/>
<path d="" fill="#AB9952" transform="translate(0,0)"/>
<path d="" fill="#EAA75B" transform="translate(0,0)"/>
<path d="" fill="#AA964D" transform="translate(0,0)"/>
<path d="" fill="#EFE385" transform="translate(0,0)"/>
<path d="" fill="#F6BA53" transform="translate(0,0)"/>
<path d="" fill="#FFE39D" transform="translate(0,0)"/>
<path d="" fill="#D39E5E" transform="translate(0,0)"/>
<path d="" fill="#F8C150" transform="translate(0,0)"/>
<path d="" fill="#E6CC51" transform="translate(0,0)"/>
<path d="" fill="#FFD682" transform="translate(0,0)"/>
<path d="" fill="#F7F367" transform="translate(0,0)"/>
<path d="" fill="#F2A461" transform="translate(0,0)"/>
<path d="" fill="#FFD583" transform="translate(0,0)"/>
<path d="" fill="#D5B282" transform="translate(0,0)"/>
<path d="" fill="#D4AC7C" transform="translate(0,0)"/>
<path d="" fill="#EA8474" transform="translate(0,0)"/>
<path d="" fill="#7B4014" transform="translate(0,0)"/>
<path d="" fill="#FAA557" transform="translate(0,0)"/>
<path d="" fill="#FFCF7A" transform="translate(0,0)"/>
<path d="" fill="#FCF435" transform="translate(0,0)"/>
<path d="" fill="#FFECA7" transform="translate(0,0)"/>
<path d="" fill="#F9B966" transform="translate(0,0)"/>
<path d="" fill="#CCAD63" transform="translate(0,0)"/>
<path d="" fill="#F7BF4B" transform="translate(0,0)"/>
<path d="" fill="#F1AA73" transform="translate(0,0)"/>
<path d="" fill="#190600" transform="translate(0,0)"/>
</svg>
